G04 MADE WITH FRITZING*
G04 WWW.FRITZING.ORG*
G04 DOUBLE SIDED*
G04 HOLES PLATED*
G04 CONTOUR ON CENTER OF CONTOUR VECTOR*
%ASAXBY*%
%FSLAX23Y23*%
%MOIN*%
%OFA0B0*%
%SFA1.0B1.0*%
%ADD10C,0.049370*%
%ADD11C,0.143858*%
%ADD12C,0.088000*%
%ADD13C,0.089370*%
%ADD14C,0.085000*%
%ADD15C,0.075278*%
%ADD16C,0.087778*%
%ADD17C,0.059370*%
%ADD18C,0.102677*%
%ADD19C,0.080925*%
%ADD20C,0.080866*%
%ADD21C,0.080000*%
%ADD22R,0.089370X0.089370*%
%ADD23R,0.085000X0.085000*%
%ADD24R,0.090000X0.036000*%
%ADD25R,0.072992X0.084803*%
%ADD26C,0.010000*%
%LNMASK1*%
G90*
G70*
G54D10*
X518Y819D03*
X418Y619D03*
X918Y1419D03*
X618Y1319D03*
X318Y719D03*
X518Y719D03*
X518Y918D03*
X718Y1019D03*
X1617Y317D03*
X419Y1318D03*
X218Y919D03*
X7920Y2320D03*
X3919Y2817D03*
X3718Y2718D03*
X3919Y3119D03*
X3618Y2718D03*
X6318Y1719D03*
X6518Y2219D03*
X5319Y1818D03*
X2618Y1919D03*
X3620Y2018D03*
X3417Y2017D03*
X4518Y2419D03*
X6718Y2419D03*
X3218Y2419D03*
X3018Y2418D03*
X5517Y2519D03*
X6418Y2519D03*
X7318Y2319D03*
X7418Y2019D03*
X7220Y2619D03*
X7018Y2418D03*
X7119Y2418D03*
X6818Y4619D03*
X7419Y3918D03*
X7718Y4719D03*
X7718Y4919D03*
X7218Y4519D03*
X7220Y4819D03*
X4518Y4419D03*
X4418Y4319D03*
X5619Y4618D03*
X5218Y4519D03*
X4818Y4719D03*
X4418Y4719D03*
X4218Y4618D03*
X5119Y2018D03*
X4218Y2419D03*
X3018Y4019D03*
X4318Y2519D03*
X5119Y2118D03*
X4218Y3219D03*
X4018Y3319D03*
X3317Y3718D03*
X6518Y4019D03*
X7318Y3919D03*
X7219Y4219D03*
X7218Y4019D03*
X6518Y3919D03*
X6418Y3818D03*
X2119Y3018D03*
X2819Y3418D03*
X6618Y4119D03*
X6418Y3719D03*
X2218Y3019D03*
X2617Y3319D03*
X818Y2619D03*
X718Y2519D03*
X619Y2718D03*
X519Y2018D03*
X519Y2419D03*
X318Y2119D03*
X718Y2219D03*
X218Y2519D03*
X418Y2519D03*
X218Y1919D03*
X1118Y2019D03*
X218Y1719D03*
X1618Y1619D03*
X1818Y1619D03*
X418Y3719D03*
X218Y2918D03*
X618Y3519D03*
X818Y3819D03*
X918Y2619D03*
X818Y2818D03*
X1018Y3318D03*
X518Y3319D03*
X618Y3819D03*
X418Y3119D03*
X4019Y4719D03*
X4318Y4818D03*
X6718Y4618D03*
X6618Y4819D03*
X6618Y4618D03*
X6218Y4619D03*
X6118Y4919D03*
X5818Y5119D03*
X7519Y5119D03*
X6118Y4719D03*
X2818Y3519D03*
X4019Y3918D03*
X5518Y3519D03*
X6118Y3519D03*
X5318Y3219D03*
X5419Y3018D03*
X4019Y1618D03*
X4318Y1618D03*
X4318Y1718D03*
X4019Y1718D03*
X4019Y1819D03*
X4318Y1819D03*
X4118Y1919D03*
X4418Y1919D03*
X7018Y3819D03*
X7018Y3619D03*
X5918Y3419D03*
X3919Y3519D03*
X3119Y3718D03*
X2819Y3618D03*
X2318Y3519D03*
X2519Y3418D03*
X6918Y3819D03*
X6819Y3819D03*
X6418Y3619D03*
X3318Y4119D03*
X4118Y3619D03*
X6819Y4318D03*
X6518Y4319D03*
X6418Y4118D03*
X6218Y3518D03*
X4319Y3918D03*
X4418Y3319D03*
X4319Y4118D03*
X3818Y4619D03*
X4518Y419D03*
X4518Y618D03*
G54D11*
X218Y219D03*
X218Y5119D03*
X8418Y219D03*
X8418Y5119D03*
G54D12*
X7918Y4019D03*
X7918Y3919D03*
X7918Y3819D03*
X7918Y3719D03*
X7918Y3619D03*
X7918Y3519D03*
X8218Y4019D03*
X8218Y3919D03*
X8218Y3819D03*
X8218Y3719D03*
X8218Y3619D03*
X8218Y3519D03*
X7618Y4019D03*
X7618Y3919D03*
X7618Y3819D03*
X7618Y3719D03*
X7618Y3619D03*
X7618Y3519D03*
X2118Y1319D03*
X2118Y1219D03*
X2118Y1119D03*
X2118Y2519D03*
X2118Y2419D03*
X2118Y2319D03*
X2118Y3719D03*
X2118Y3619D03*
X2118Y3519D03*
X2618Y4919D03*
X2618Y4819D03*
X2618Y4719D03*
X2618Y4619D03*
X2618Y4519D03*
X2618Y4419D03*
X2618Y4319D03*
X2618Y4219D03*
X2618Y4119D03*
X2618Y4019D03*
X2618Y3919D03*
X2618Y3819D03*
X2618Y3719D03*
X2618Y3619D03*
X5418Y4919D03*
X5418Y5019D03*
X7918Y4519D03*
X7918Y4619D03*
X8218Y3119D03*
X8218Y3219D03*
X8218Y4519D03*
X8218Y4619D03*
X7918Y3119D03*
X7918Y3219D03*
X6418Y4919D03*
X6418Y5019D03*
X7418Y4919D03*
X7418Y5019D03*
X7618Y4519D03*
X7618Y4619D03*
X8218Y2519D03*
X8218Y2619D03*
X5418Y1119D03*
X5418Y1019D03*
X5418Y1519D03*
X5418Y1419D03*
X5918Y4919D03*
X5918Y5019D03*
X4918Y4919D03*
X4918Y5019D03*
X6918Y4919D03*
X6918Y5019D03*
X4418Y4919D03*
X4418Y5019D03*
X3918Y4919D03*
X3918Y5019D03*
G54D13*
X7518Y1519D03*
X7818Y1519D03*
X7518Y1419D03*
X7818Y1419D03*
X7518Y1319D03*
X7818Y1319D03*
X7518Y1219D03*
X7818Y1219D03*
X7518Y1119D03*
X7818Y1119D03*
X7518Y1019D03*
X7818Y1019D03*
X7518Y919D03*
X7818Y919D03*
X7518Y819D03*
X7818Y819D03*
X7518Y719D03*
X7818Y719D03*
X7518Y619D03*
X7818Y619D03*
X7518Y519D03*
X7818Y519D03*
X7518Y419D03*
X7818Y419D03*
X7518Y319D03*
X7818Y319D03*
X7518Y219D03*
X7818Y219D03*
X6118Y1519D03*
X6418Y1519D03*
X6118Y1419D03*
X6418Y1419D03*
X6118Y1319D03*
X6418Y1319D03*
X6118Y1219D03*
X6418Y1219D03*
X6118Y1119D03*
X6418Y1119D03*
X6118Y1019D03*
X6418Y1019D03*
X6118Y919D03*
X6418Y919D03*
X6118Y819D03*
X6418Y819D03*
X6118Y719D03*
X6418Y719D03*
X6118Y619D03*
X6418Y619D03*
X6118Y519D03*
X6418Y519D03*
X6118Y419D03*
X6418Y419D03*
X6118Y319D03*
X6418Y319D03*
X6118Y219D03*
X6418Y219D03*
G54D12*
X8218Y1519D03*
X8218Y1369D03*
X8218Y1219D03*
X8218Y1069D03*
X8218Y919D03*
X8218Y769D03*
X8218Y619D03*
X8218Y469D03*
X7118Y1519D03*
X7118Y1369D03*
X7118Y1219D03*
X7118Y1069D03*
X7118Y919D03*
X7118Y769D03*
X7118Y619D03*
X7118Y469D03*
X6818Y1519D03*
X6818Y1369D03*
X6818Y1219D03*
X6818Y1069D03*
X6818Y919D03*
X6818Y769D03*
X6818Y619D03*
X6818Y469D03*
X5718Y1519D03*
X5718Y1369D03*
X5718Y1219D03*
X5718Y1069D03*
X5718Y919D03*
X5718Y769D03*
X5718Y619D03*
X5718Y469D03*
G54D14*
X4318Y819D03*
X4618Y819D03*
X4318Y719D03*
X4618Y719D03*
X4318Y619D03*
X4618Y619D03*
X4318Y519D03*
X4618Y519D03*
X3718Y819D03*
X4018Y819D03*
X3718Y719D03*
X4018Y719D03*
X3718Y619D03*
X4018Y619D03*
X3718Y519D03*
X4018Y519D03*
X3718Y1419D03*
X4018Y1419D03*
X3718Y1319D03*
X4018Y1319D03*
X3718Y1219D03*
X4018Y1219D03*
X3718Y1119D03*
X4018Y1119D03*
G54D12*
X4618Y1419D03*
X4618Y1319D03*
X4618Y1219D03*
X4318Y1419D03*
X4318Y1319D03*
X4318Y1219D03*
X7618Y3119D03*
X7618Y3219D03*
G54D14*
X3618Y2619D03*
X3618Y2219D03*
X3718Y2619D03*
X3718Y2219D03*
X3818Y2619D03*
X3818Y2219D03*
X1518Y4219D03*
X1918Y4219D03*
G54D12*
X7618Y2119D03*
X7618Y2019D03*
X8218Y2119D03*
X8218Y2019D03*
X7918Y2119D03*
X7918Y2019D03*
X5018Y719D03*
X5018Y619D03*
X5018Y1119D03*
X5018Y1019D03*
X5018Y1519D03*
X5018Y1419D03*
G54D15*
X6717Y2319D03*
X6817Y2319D03*
X6917Y2319D03*
X7017Y2319D03*
X7117Y2319D03*
X6257Y4219D03*
X6157Y4219D03*
X6057Y4219D03*
X5957Y4219D03*
X5857Y4219D03*
X5757Y4219D03*
X5657Y4219D03*
X5557Y4219D03*
X5457Y4219D03*
X5357Y4219D03*
X7117Y4219D03*
X7017Y4219D03*
X6917Y4219D03*
X6817Y4219D03*
X6717Y4219D03*
X6617Y4219D03*
X6517Y4219D03*
X6417Y4219D03*
X5817Y2319D03*
X5717Y2319D03*
X5917Y2319D03*
X6017Y2319D03*
X6117Y2319D03*
X6217Y2319D03*
X6317Y2319D03*
X6417Y2319D03*
X6617Y2319D03*
X5318Y2120D03*
X5418Y2120D03*
X5518Y2120D03*
X5618Y2120D03*
X5718Y2120D03*
X5818Y2120D03*
X5918Y2120D03*
X6018Y2120D03*
X6118Y2120D03*
X6218Y2120D03*
X6318Y2120D03*
X6418Y2120D03*
X6518Y2120D03*
X6618Y2120D03*
X6718Y2120D03*
X6818Y2120D03*
X6918Y2120D03*
X7018Y2120D03*
X7118Y2120D03*
X5318Y2022D03*
X5418Y2022D03*
X5518Y2022D03*
X5618Y2022D03*
X5718Y2022D03*
X5818Y2022D03*
X5918Y2022D03*
X6018Y2022D03*
X6118Y2022D03*
X6218Y2022D03*
X6318Y2022D03*
X6418Y2022D03*
X6518Y2022D03*
X6618Y2022D03*
X6718Y2022D03*
X6818Y2022D03*
X6918Y2022D03*
X7018Y2022D03*
X7118Y2022D03*
X5318Y4520D03*
X5418Y4520D03*
X5518Y4520D03*
X5618Y4520D03*
X5718Y4520D03*
X5818Y4520D03*
X5918Y4520D03*
X6018Y4520D03*
X6118Y4520D03*
X6218Y4520D03*
X6318Y4520D03*
X6418Y4520D03*
X6518Y4520D03*
X6618Y4520D03*
X6718Y4520D03*
X6818Y4520D03*
X6918Y4520D03*
X7018Y4520D03*
X7118Y4520D03*
X5318Y4419D03*
X5418Y4419D03*
X5518Y4419D03*
X5618Y4419D03*
X5718Y4419D03*
X5818Y4419D03*
X5918Y4419D03*
X6018Y4419D03*
X6118Y4419D03*
X6218Y4419D03*
X6318Y4419D03*
X6418Y4419D03*
X6518Y4419D03*
X6618Y4419D03*
X6718Y4419D03*
X6818Y4419D03*
X6918Y4419D03*
X7018Y4419D03*
X7118Y4419D03*
G54D16*
X3418Y2319D03*
X3418Y2419D03*
X3418Y2519D03*
X3418Y2619D03*
X3418Y2719D03*
X3418Y2819D03*
X3418Y2919D03*
X3418Y3019D03*
X2518Y3019D03*
X2518Y2919D03*
X2518Y2819D03*
X2518Y2719D03*
X2518Y2619D03*
X2518Y2519D03*
X2518Y2419D03*
X2518Y2319D03*
G54D17*
X318Y1244D03*
X318Y1182D03*
X318Y1119D03*
X271Y1213D03*
X271Y1150D03*
G54D18*
X117Y1038D03*
X117Y1325D03*
G54D17*
X318Y2444D03*
X318Y2382D03*
X318Y2319D03*
X271Y2413D03*
X271Y2350D03*
G54D18*
X117Y2238D03*
X117Y2525D03*
G54D17*
X318Y3644D03*
X318Y3582D03*
X318Y3519D03*
X271Y3613D03*
X271Y3550D03*
G54D18*
X117Y3438D03*
X117Y3725D03*
G54D17*
X318Y4644D03*
X318Y4582D03*
X318Y4519D03*
X271Y4613D03*
X271Y4550D03*
G54D18*
X117Y4438D03*
X117Y4725D03*
G54D12*
X2818Y519D03*
X2718Y519D03*
X2618Y519D03*
X2518Y519D03*
X3418Y519D03*
X3318Y519D03*
X3218Y519D03*
X3118Y519D03*
X2818Y819D03*
X2718Y819D03*
X2618Y819D03*
X2518Y819D03*
X3418Y819D03*
X3318Y819D03*
X3218Y819D03*
X3118Y819D03*
X2818Y1119D03*
X2718Y1119D03*
X2618Y1119D03*
X2518Y1119D03*
X3418Y1119D03*
X3318Y1119D03*
X3218Y1119D03*
X3118Y1119D03*
X2818Y1419D03*
X2718Y1419D03*
X2618Y1419D03*
X2518Y1419D03*
X3418Y1419D03*
X3318Y1419D03*
X3218Y1419D03*
X3118Y1419D03*
G54D19*
X1111Y619D03*
G54D20*
X918Y619D03*
G54D19*
X1112Y1818D03*
G54D20*
X918Y1818D03*
G54D19*
X1112Y3019D03*
G54D20*
X918Y3019D03*
G54D21*
X1318Y1018D03*
X1318Y1119D03*
X718Y819D03*
X718Y719D03*
X1318Y819D03*
X1318Y719D03*
X1318Y2319D03*
X1318Y2218D03*
X1318Y2019D03*
X1318Y1918D03*
X718Y2019D03*
X718Y1918D03*
X1318Y3418D03*
X1318Y3519D03*
X1318Y3219D03*
X1318Y3119D03*
X718Y3219D03*
X718Y3119D03*
G54D14*
X1518Y1319D03*
X1918Y1319D03*
X1518Y2519D03*
X1918Y2519D03*
X1518Y3719D03*
X1918Y3719D03*
X1518Y1519D03*
X1918Y1519D03*
X1518Y2719D03*
X1918Y2719D03*
X1518Y3919D03*
X1918Y3919D03*
X1518Y1119D03*
X1918Y1119D03*
X1518Y2318D03*
X1918Y2318D03*
X1518Y3519D03*
X1918Y3519D03*
X1518Y919D03*
X1918Y919D03*
X1518Y2118D03*
X1918Y2118D03*
X1518Y3319D03*
X1918Y3319D03*
G54D22*
X7518Y1518D03*
X6118Y1518D03*
G54D23*
X4318Y819D03*
X3718Y819D03*
X3718Y1419D03*
G54D24*
X876Y1319D03*
X876Y1269D03*
X876Y1219D03*
X876Y1169D03*
X876Y1119D03*
X876Y1069D03*
X876Y1019D03*
X876Y969D03*
X1118Y969D03*
X1118Y1019D03*
X1118Y1069D03*
X1118Y1119D03*
X1118Y1169D03*
X1118Y1219D03*
X1118Y1269D03*
X1118Y1319D03*
X876Y2518D03*
X876Y2468D03*
X876Y2418D03*
X876Y2368D03*
X876Y2318D03*
X876Y2268D03*
X876Y2218D03*
X876Y2168D03*
X1118Y2168D03*
X1118Y2218D03*
X1118Y2268D03*
X1118Y2318D03*
X1118Y2368D03*
X1118Y2418D03*
X1118Y2468D03*
X1118Y2518D03*
X876Y3769D03*
X876Y3719D03*
X876Y3669D03*
X876Y3619D03*
X876Y3569D03*
X876Y3519D03*
X876Y3469D03*
X876Y3419D03*
X1118Y3419D03*
X1118Y3469D03*
X1118Y3519D03*
X1118Y3569D03*
X1118Y3619D03*
X1118Y3669D03*
X1118Y3719D03*
X1118Y3769D03*
G54D25*
X218Y819D03*
X96Y819D03*
X96Y619D03*
X218Y619D03*
X96Y419D03*
X218Y419D03*
X96Y1819D03*
X218Y1819D03*
X3818Y3319D03*
X3696Y3319D03*
X3818Y3119D03*
X3696Y3119D03*
X96Y4219D03*
X218Y4219D03*
X218Y2019D03*
X96Y2019D03*
X96Y1619D03*
X218Y1619D03*
X96Y2819D03*
X218Y2819D03*
X96Y3019D03*
X218Y3019D03*
X218Y3219D03*
X96Y3219D03*
G54D26*
G36*
X3787Y2881D02*
X3787Y2956D01*
X3850Y2956D01*
X3850Y2881D01*
X3787Y2881D01*
G37*
D02*
G36*
X3665Y2881D02*
X3665Y2956D01*
X3728Y2956D01*
X3728Y2881D01*
X3665Y2881D01*
G37*
D02*
G04 End of Mask1*
M02*