G04 MADE WITH FRITZING*
G04 WWW.FRITZING.ORG*
G04 DOUBLE SIDED*
G04 HOLES PLATED*
G04 CONTOUR ON CENTER OF CONTOUR VECTOR*
%ASAXBY*%
%FSLAX23Y23*%
%MOIN*%
%OFA0B0*%
%SFA1.0B1.0*%
%ADD10C,0.039370*%
%ADD11C,0.078000*%
%ADD12C,0.079370*%
%ADD13C,0.075000*%
%ADD14C,0.065278*%
%ADD15C,0.077778*%
%ADD16C,0.049370*%
%ADD17C,0.092677*%
%ADD18C,0.070925*%
%ADD19C,0.070866*%
%ADD20C,0.070000*%
%ADD21R,0.079370X0.079370*%
%ADD22R,0.075000X0.075000*%
%ADD23R,0.080000X0.026000*%
%ADD24R,0.062992X0.074803*%
%ADD25C,0.024000*%
%ADD26C,0.016000*%
%LNCOPPER1*%
G90*
G70*
G54D10*
X518Y819D03*
X418Y619D03*
X918Y1419D03*
X618Y1319D03*
X318Y719D03*
X518Y719D03*
X518Y918D03*
X718Y1019D03*
X1617Y317D03*
X419Y1318D03*
X218Y919D03*
X7920Y2320D03*
X3919Y2817D03*
X3718Y2718D03*
X3919Y3119D03*
X3618Y2718D03*
X6318Y1719D03*
X6518Y2219D03*
X5319Y1818D03*
X2618Y1919D03*
X3620Y2018D03*
X3417Y2017D03*
X4518Y2419D03*
X6718Y2419D03*
X3218Y2419D03*
X3018Y2418D03*
X5517Y2519D03*
X6418Y2519D03*
X7318Y2319D03*
X7418Y2019D03*
X7220Y2619D03*
X7018Y2418D03*
X7119Y2418D03*
X6818Y4619D03*
X7419Y3918D03*
X7718Y4719D03*
X7718Y4919D03*
X7218Y4519D03*
X7220Y4819D03*
X4518Y4419D03*
X4418Y4319D03*
X5619Y4618D03*
X5218Y4519D03*
X4818Y4719D03*
X4418Y4719D03*
X4218Y4618D03*
X5119Y2018D03*
X4218Y2419D03*
X3018Y4019D03*
X4318Y2519D03*
X5119Y2118D03*
X4218Y3219D03*
X4018Y3319D03*
X3317Y3718D03*
X6518Y4019D03*
X7318Y3919D03*
X7219Y4219D03*
X7218Y4019D03*
X6518Y3919D03*
X6418Y3818D03*
X2119Y3018D03*
X2819Y3418D03*
X6618Y4119D03*
X6418Y3719D03*
X2218Y3019D03*
X2617Y3319D03*
X818Y2619D03*
X718Y2519D03*
X619Y2718D03*
X519Y2018D03*
X519Y2419D03*
X318Y2119D03*
X718Y2219D03*
X218Y2519D03*
X418Y2519D03*
X218Y1919D03*
X1118Y2019D03*
X218Y1719D03*
X1618Y1619D03*
X1818Y1619D03*
X418Y3719D03*
X218Y2918D03*
X618Y3519D03*
X818Y3819D03*
X918Y2619D03*
X818Y2818D03*
X1018Y3318D03*
X518Y3319D03*
X618Y3819D03*
X418Y3119D03*
X4019Y4719D03*
X4318Y4818D03*
X6718Y4618D03*
X6618Y4819D03*
X6618Y4618D03*
X6218Y4619D03*
X6118Y4919D03*
X5818Y5119D03*
X7519Y5119D03*
X6118Y4719D03*
X2818Y3519D03*
X4019Y3918D03*
X5518Y3519D03*
X6118Y3519D03*
X5318Y3219D03*
X5419Y3018D03*
X4019Y1618D03*
X4318Y1618D03*
X4318Y1718D03*
X4019Y1718D03*
X4019Y1819D03*
X4318Y1819D03*
X4118Y1919D03*
X4418Y1919D03*
X7018Y3819D03*
X7018Y3619D03*
X5918Y3419D03*
X3919Y3519D03*
X3119Y3718D03*
X2819Y3618D03*
X2318Y3519D03*
X2519Y3418D03*
X6918Y3819D03*
X6819Y3819D03*
X6418Y3619D03*
X3318Y4119D03*
X4118Y3619D03*
X6819Y4318D03*
X6518Y4319D03*
X6418Y4118D03*
X6218Y3518D03*
X4319Y3918D03*
X4418Y3319D03*
X4319Y4118D03*
X3818Y4619D03*
X4518Y419D03*
X4518Y618D03*
G54D11*
X7918Y4019D03*
X7918Y3919D03*
X7918Y3819D03*
X7918Y3719D03*
X7918Y3619D03*
X7918Y3519D03*
X8218Y4019D03*
X8218Y3919D03*
X8218Y3819D03*
X8218Y3719D03*
X8218Y3619D03*
X8218Y3519D03*
X7618Y4019D03*
X7618Y3919D03*
X7618Y3819D03*
X7618Y3719D03*
X7618Y3619D03*
X7618Y3519D03*
X2118Y1319D03*
X2118Y1219D03*
X2118Y1119D03*
X2118Y2519D03*
X2118Y2419D03*
X2118Y2319D03*
X2118Y3719D03*
X2118Y3619D03*
X2118Y3519D03*
X2618Y4919D03*
X2618Y4819D03*
X2618Y4719D03*
X2618Y4619D03*
X2618Y4519D03*
X2618Y4419D03*
X2618Y4319D03*
X2618Y4219D03*
X2618Y4119D03*
X2618Y4019D03*
X2618Y3919D03*
X2618Y3819D03*
X2618Y3719D03*
X2618Y3619D03*
X5418Y4919D03*
X5418Y5019D03*
X7918Y4519D03*
X7918Y4619D03*
X8218Y3119D03*
X8218Y3219D03*
X8218Y4519D03*
X8218Y4619D03*
X7918Y3119D03*
X7918Y3219D03*
X6418Y4919D03*
X6418Y5019D03*
X7418Y4919D03*
X7418Y5019D03*
X7618Y4519D03*
X7618Y4619D03*
X8218Y2519D03*
X8218Y2619D03*
X5418Y1119D03*
X5418Y1019D03*
X5418Y1519D03*
X5418Y1419D03*
X5918Y4919D03*
X5918Y5019D03*
X4918Y4919D03*
X4918Y5019D03*
X6918Y4919D03*
X6918Y5019D03*
X4418Y4919D03*
X4418Y5019D03*
X3918Y4919D03*
X3918Y5019D03*
G54D12*
X7518Y1519D03*
X7818Y1519D03*
X7518Y1419D03*
X7818Y1419D03*
X7518Y1319D03*
X7818Y1319D03*
X7518Y1219D03*
X7818Y1219D03*
X7518Y1119D03*
X7818Y1119D03*
X7518Y1019D03*
X7818Y1019D03*
X7518Y919D03*
X7818Y919D03*
X7518Y819D03*
X7818Y819D03*
X7518Y719D03*
X7818Y719D03*
X7518Y619D03*
X7818Y619D03*
X7518Y519D03*
X7818Y519D03*
X7518Y419D03*
X7818Y419D03*
X7518Y319D03*
X7818Y319D03*
X7518Y219D03*
X7818Y219D03*
X6118Y1519D03*
X6418Y1519D03*
X6118Y1419D03*
X6418Y1419D03*
X6118Y1319D03*
X6418Y1319D03*
X6118Y1219D03*
X6418Y1219D03*
X6118Y1119D03*
X6418Y1119D03*
X6118Y1019D03*
X6418Y1019D03*
X6118Y919D03*
X6418Y919D03*
X6118Y819D03*
X6418Y819D03*
X6118Y719D03*
X6418Y719D03*
X6118Y619D03*
X6418Y619D03*
X6118Y519D03*
X6418Y519D03*
X6118Y419D03*
X6418Y419D03*
X6118Y319D03*
X6418Y319D03*
X6118Y219D03*
X6418Y219D03*
G54D11*
X8218Y1519D03*
X8218Y1369D03*
X8218Y1219D03*
X8218Y1069D03*
X8218Y919D03*
X8218Y769D03*
X8218Y619D03*
X8218Y469D03*
X7118Y1519D03*
X7118Y1369D03*
X7118Y1219D03*
X7118Y1069D03*
X7118Y919D03*
X7118Y769D03*
X7118Y619D03*
X7118Y469D03*
X6818Y1519D03*
X6818Y1369D03*
X6818Y1219D03*
X6818Y1069D03*
X6818Y919D03*
X6818Y769D03*
X6818Y619D03*
X6818Y469D03*
X5718Y1519D03*
X5718Y1369D03*
X5718Y1219D03*
X5718Y1069D03*
X5718Y919D03*
X5718Y769D03*
X5718Y619D03*
X5718Y469D03*
G54D13*
X4318Y819D03*
X4618Y819D03*
X4318Y719D03*
X4618Y719D03*
X4318Y619D03*
X4618Y619D03*
X4318Y519D03*
X4618Y519D03*
X3718Y819D03*
X4018Y819D03*
X3718Y719D03*
X4018Y719D03*
X3718Y619D03*
X4018Y619D03*
X3718Y519D03*
X4018Y519D03*
X3718Y1419D03*
X4018Y1419D03*
X3718Y1319D03*
X4018Y1319D03*
X3718Y1219D03*
X4018Y1219D03*
X3718Y1119D03*
X4018Y1119D03*
G54D11*
X4618Y1419D03*
X4618Y1319D03*
X4618Y1219D03*
X4318Y1419D03*
X4318Y1319D03*
X4318Y1219D03*
X7618Y3119D03*
X7618Y3219D03*
G54D13*
X3618Y2619D03*
X3618Y2219D03*
X3718Y2619D03*
X3718Y2219D03*
X3818Y2619D03*
X3818Y2219D03*
X1518Y4219D03*
X1918Y4219D03*
G54D11*
X7618Y2119D03*
X7618Y2019D03*
X8218Y2119D03*
X8218Y2019D03*
X7918Y2119D03*
X7918Y2019D03*
X5018Y719D03*
X5018Y619D03*
X5018Y1119D03*
X5018Y1019D03*
X5018Y1519D03*
X5018Y1419D03*
G54D14*
X6717Y2319D03*
X6817Y2319D03*
X6917Y2319D03*
X7017Y2319D03*
X7117Y2319D03*
X6257Y4219D03*
X6157Y4219D03*
X6057Y4219D03*
X5957Y4219D03*
X5857Y4219D03*
X5757Y4219D03*
X5657Y4219D03*
X5557Y4219D03*
X5457Y4219D03*
X5357Y4219D03*
X7117Y4219D03*
X7017Y4219D03*
X6917Y4219D03*
X6817Y4219D03*
X6717Y4219D03*
X6617Y4219D03*
X6517Y4219D03*
X6417Y4219D03*
X5817Y2319D03*
X5717Y2319D03*
X5917Y2319D03*
X6017Y2319D03*
X6117Y2319D03*
X6217Y2319D03*
X6317Y2319D03*
X6417Y2319D03*
X6617Y2319D03*
X5318Y2120D03*
X5418Y2120D03*
X5518Y2120D03*
X5618Y2120D03*
X5718Y2120D03*
X5818Y2120D03*
X5918Y2120D03*
X6018Y2120D03*
X6118Y2120D03*
X6218Y2120D03*
X6318Y2120D03*
X6418Y2120D03*
X6518Y2120D03*
X6618Y2120D03*
X6718Y2120D03*
X6818Y2120D03*
X6918Y2120D03*
X7018Y2120D03*
X7118Y2120D03*
X5318Y2022D03*
X5418Y2022D03*
X5518Y2022D03*
X5618Y2022D03*
X5718Y2022D03*
X5818Y2022D03*
X5918Y2022D03*
X6018Y2022D03*
X6118Y2022D03*
X6218Y2022D03*
X6318Y2022D03*
X6418Y2022D03*
X6518Y2022D03*
X6618Y2022D03*
X6718Y2022D03*
X6818Y2022D03*
X6918Y2022D03*
X7018Y2022D03*
X7118Y2022D03*
X5318Y4520D03*
X5418Y4520D03*
X5518Y4520D03*
X5618Y4520D03*
X5718Y4520D03*
X5818Y4520D03*
X5918Y4520D03*
X6018Y4520D03*
X6118Y4520D03*
X6218Y4520D03*
X6318Y4520D03*
X6418Y4520D03*
X6518Y4520D03*
X6618Y4520D03*
X6718Y4520D03*
X6818Y4520D03*
X6918Y4520D03*
X7018Y4520D03*
X7118Y4520D03*
X5318Y4419D03*
X5418Y4419D03*
X5518Y4419D03*
X5618Y4419D03*
X5718Y4419D03*
X5818Y4419D03*
X5918Y4419D03*
X6018Y4419D03*
X6118Y4419D03*
X6218Y4419D03*
X6318Y4419D03*
X6418Y4419D03*
X6518Y4419D03*
X6618Y4419D03*
X6718Y4419D03*
X6818Y4419D03*
X6918Y4419D03*
X7018Y4419D03*
X7118Y4419D03*
G54D15*
X3418Y2319D03*
X3418Y2419D03*
X3418Y2519D03*
X3418Y2619D03*
X3418Y2719D03*
X3418Y2819D03*
X3418Y2919D03*
X3418Y3019D03*
X2518Y3019D03*
X2518Y2919D03*
X2518Y2819D03*
X2518Y2719D03*
X2518Y2619D03*
X2518Y2519D03*
X2518Y2419D03*
X2518Y2319D03*
G54D16*
X318Y1244D03*
X318Y1182D03*
X318Y1119D03*
X271Y1213D03*
X271Y1150D03*
G54D17*
X117Y1038D03*
X117Y1325D03*
G54D16*
X318Y2444D03*
X318Y2382D03*
X318Y2319D03*
X271Y2413D03*
X271Y2350D03*
G54D17*
X117Y2238D03*
X117Y2525D03*
G54D16*
X318Y3644D03*
X318Y3582D03*
X318Y3519D03*
X271Y3613D03*
X271Y3550D03*
G54D17*
X117Y3438D03*
X117Y3725D03*
G54D16*
X318Y4644D03*
X318Y4582D03*
X318Y4519D03*
X271Y4613D03*
X271Y4550D03*
G54D17*
X117Y4438D03*
X117Y4725D03*
G54D11*
X2818Y519D03*
X2718Y519D03*
X2618Y519D03*
X2518Y519D03*
X3418Y519D03*
X3318Y519D03*
X3218Y519D03*
X3118Y519D03*
X2818Y819D03*
X2718Y819D03*
X2618Y819D03*
X2518Y819D03*
X3418Y819D03*
X3318Y819D03*
X3218Y819D03*
X3118Y819D03*
X2818Y1119D03*
X2718Y1119D03*
X2618Y1119D03*
X2518Y1119D03*
X3418Y1119D03*
X3318Y1119D03*
X3218Y1119D03*
X3118Y1119D03*
X2818Y1419D03*
X2718Y1419D03*
X2618Y1419D03*
X2518Y1419D03*
X3418Y1419D03*
X3318Y1419D03*
X3218Y1419D03*
X3118Y1419D03*
G54D18*
X1111Y619D03*
G54D19*
X918Y619D03*
G54D18*
X1112Y1818D03*
G54D19*
X918Y1818D03*
G54D18*
X1112Y3019D03*
G54D19*
X918Y3019D03*
G54D20*
X1318Y1018D03*
X1318Y1119D03*
X718Y819D03*
X718Y719D03*
X1318Y819D03*
X1318Y719D03*
X1318Y2319D03*
X1318Y2218D03*
X1318Y2019D03*
X1318Y1918D03*
X718Y2019D03*
X718Y1918D03*
X1318Y3418D03*
X1318Y3519D03*
X1318Y3219D03*
X1318Y3119D03*
X718Y3219D03*
X718Y3119D03*
G54D13*
X1518Y1319D03*
X1918Y1319D03*
X1518Y2519D03*
X1918Y2519D03*
X1518Y3719D03*
X1918Y3719D03*
X1518Y1519D03*
X1918Y1519D03*
X1518Y2719D03*
X1918Y2719D03*
X1518Y3919D03*
X1918Y3919D03*
X1518Y1119D03*
X1918Y1119D03*
X1518Y2318D03*
X1918Y2318D03*
X1518Y3519D03*
X1918Y3519D03*
X1518Y919D03*
X1918Y919D03*
X1518Y2118D03*
X1918Y2118D03*
X1518Y3319D03*
X1918Y3319D03*
G54D21*
X7518Y1518D03*
X6118Y1518D03*
G54D22*
X4318Y819D03*
X3718Y819D03*
X3718Y1419D03*
G54D23*
X876Y1319D03*
X876Y1269D03*
X876Y1219D03*
X876Y1169D03*
X876Y1119D03*
X876Y1069D03*
X876Y1019D03*
X876Y969D03*
X1118Y969D03*
X1118Y1019D03*
X1118Y1069D03*
X1118Y1119D03*
X1118Y1169D03*
X1118Y1219D03*
X1118Y1269D03*
X1118Y1319D03*
X876Y2518D03*
X876Y2468D03*
X876Y2418D03*
X876Y2368D03*
X876Y2318D03*
X876Y2268D03*
X876Y2218D03*
X876Y2168D03*
X1118Y2168D03*
X1118Y2218D03*
X1118Y2268D03*
X1118Y2318D03*
X1118Y2368D03*
X1118Y2418D03*
X1118Y2468D03*
X1118Y2518D03*
X876Y3769D03*
X876Y3719D03*
X876Y3669D03*
X876Y3619D03*
X876Y3569D03*
X876Y3519D03*
X876Y3469D03*
X876Y3419D03*
X1118Y3419D03*
X1118Y3469D03*
X1118Y3519D03*
X1118Y3569D03*
X1118Y3619D03*
X1118Y3669D03*
X1118Y3719D03*
X1118Y3769D03*
G54D24*
X218Y819D03*
X96Y819D03*
X96Y619D03*
X218Y619D03*
X96Y419D03*
X218Y419D03*
X96Y1819D03*
X218Y1819D03*
X3818Y3319D03*
X3696Y3319D03*
X3818Y3119D03*
X3696Y3119D03*
X96Y4219D03*
X218Y4219D03*
X218Y2019D03*
X96Y2019D03*
X96Y1619D03*
X218Y1619D03*
X96Y2819D03*
X218Y2819D03*
X96Y3019D03*
X218Y3019D03*
X218Y3219D03*
X96Y3219D03*
G54D25*
X8188Y2119D02*
X7948Y2119D01*
D02*
X7888Y3519D02*
X7648Y3519D01*
D02*
X8188Y3219D02*
X7948Y3219D01*
D02*
X7888Y3219D02*
X7648Y3219D01*
D02*
X7648Y2019D02*
X7888Y2019D01*
D02*
X8319Y3119D02*
X8319Y2718D01*
D02*
X8319Y2718D02*
X8240Y2640D01*
D02*
X8240Y3197D02*
X8319Y3119D01*
D02*
X8188Y2019D02*
X7948Y2019D01*
D02*
X8319Y2518D02*
X8240Y2597D01*
D02*
X8319Y2119D02*
X8319Y2518D01*
D02*
X8240Y2040D02*
X8319Y2119D01*
D02*
X7648Y2119D02*
X7888Y2119D01*
D02*
X8188Y4619D02*
X7948Y4619D01*
D02*
X7888Y4619D02*
X7648Y4619D01*
D02*
X7388Y5019D02*
X6948Y5019D01*
D02*
X6888Y5019D02*
X6448Y5019D01*
D02*
X8218Y3249D02*
X8218Y3488D01*
D02*
X8188Y3519D02*
X7948Y3519D01*
D02*
X8235Y1993D02*
X8419Y1717D01*
D02*
X7618Y218D02*
X7619Y519D01*
D02*
X7619Y519D02*
X7540Y597D01*
D02*
X7718Y119D02*
X7618Y218D01*
D02*
X8018Y119D02*
X7718Y119D01*
D02*
X8419Y419D02*
X8018Y119D01*
D02*
X7119Y219D02*
X7418Y518D01*
D02*
X7418Y518D02*
X7496Y597D01*
D02*
X8018Y1217D02*
X7849Y1218D01*
D02*
X8194Y1086D02*
X8018Y1217D01*
D02*
X8018Y1318D02*
X7849Y1319D01*
D02*
X8191Y1232D02*
X8018Y1318D01*
D02*
X8018Y1420D02*
X7849Y1419D01*
D02*
X8189Y1376D02*
X8018Y1420D01*
D02*
X8188Y1519D02*
X7849Y1519D01*
D02*
X7017Y219D02*
X7119Y219D01*
D02*
X6449Y219D02*
X7017Y219D01*
D02*
X8419Y1717D02*
X8419Y419D01*
D02*
X8319Y3620D02*
X8318Y4520D01*
D02*
X8318Y4520D02*
X8240Y4597D01*
D02*
X8239Y3540D02*
X8319Y3620D01*
D02*
X7818Y5019D02*
X7448Y5019D01*
D02*
X8197Y4640D02*
X7818Y5019D01*
D02*
X7318Y1119D02*
X7140Y940D01*
D02*
X7487Y1119D02*
X7318Y1119D01*
D02*
X7318Y1217D02*
X7142Y1087D01*
D02*
X7487Y1218D02*
X7318Y1217D01*
D02*
X7318Y1318D02*
X7145Y1232D01*
D02*
X7487Y1319D02*
X7318Y1318D01*
D02*
X7318Y1420D02*
X7147Y1376D01*
D02*
X7487Y1419D02*
X7318Y1420D01*
D02*
X7148Y1519D02*
X7487Y1519D01*
D02*
X7917Y818D02*
X7849Y818D01*
D02*
X8199Y491D02*
X7917Y818D01*
D02*
X7917Y919D02*
X7849Y919D01*
D02*
X8197Y640D02*
X7917Y919D01*
D02*
X7918Y1018D02*
X7849Y1018D01*
D02*
X8195Y788D02*
X7918Y1018D01*
D02*
X8018Y1119D02*
X7849Y1119D01*
D02*
X8197Y940D02*
X8018Y1119D01*
D02*
X6706Y320D02*
X6444Y501D01*
D02*
X7496Y697D02*
X7418Y619D01*
D02*
X7119Y317D02*
X6706Y320D01*
D02*
X7418Y619D02*
X7119Y317D01*
D02*
X7419Y818D02*
X7487Y818D01*
D02*
X7138Y491D02*
X7419Y818D01*
D02*
X7419Y919D02*
X7487Y919D01*
D02*
X7140Y640D02*
X7419Y919D01*
D02*
X7818Y249D02*
X7818Y288D01*
D02*
X7818Y349D02*
X7818Y388D01*
D02*
X7818Y449D02*
X7818Y488D01*
D02*
X7418Y1018D02*
X7141Y788D01*
D02*
X7487Y1018D02*
X7418Y1018D01*
D02*
X6519Y1018D02*
X6449Y1018D01*
D02*
X6795Y788D02*
X6519Y1018D01*
D02*
X6619Y1119D02*
X6449Y1119D01*
D02*
X6797Y940D02*
X6619Y1119D01*
D02*
X6619Y1219D02*
X6449Y1219D01*
D02*
X6794Y1087D02*
X6619Y1219D01*
D02*
X6619Y1320D02*
X6449Y1319D01*
D02*
X6791Y1232D02*
X6619Y1320D01*
D02*
X6619Y1418D02*
X6449Y1418D01*
D02*
X6789Y1376D02*
X6619Y1418D01*
D02*
X6788Y1519D02*
X6449Y1519D01*
D02*
X6019Y1018D02*
X5741Y788D01*
D02*
X6087Y1018D02*
X6019Y1018D01*
D02*
X5918Y1119D02*
X5740Y940D01*
D02*
X6087Y1119D02*
X5918Y1119D01*
D02*
X5918Y1219D02*
X5742Y1087D01*
D02*
X6087Y1219D02*
X5918Y1219D01*
D02*
X5918Y1320D02*
X5745Y1232D01*
D02*
X6087Y1319D02*
X5918Y1320D01*
D02*
X5918Y1418D02*
X5747Y1376D01*
D02*
X6087Y1418D02*
X5918Y1418D01*
D02*
X6087Y1519D02*
X5748Y1519D01*
D02*
X6519Y817D02*
X6449Y818D01*
D02*
X6799Y491D02*
X6519Y817D01*
D02*
X6519Y918D02*
X6449Y918D01*
D02*
X6797Y640D02*
X6519Y918D01*
D02*
X6396Y240D02*
X6319Y317D01*
D02*
X6087Y818D02*
X6018Y818D01*
D02*
X6217Y518D02*
X6140Y597D01*
D02*
X6018Y818D02*
X5738Y491D01*
D02*
X6319Y317D02*
X6217Y518D01*
D02*
X5817Y319D02*
X5519Y319D01*
D02*
X5519Y319D02*
X5414Y427D01*
D02*
X5414Y427D02*
X5418Y988D01*
D02*
X6096Y597D02*
X5817Y319D01*
D02*
X6019Y918D02*
X5740Y640D01*
D02*
X6087Y918D02*
X6019Y918D01*
D02*
X6418Y449D02*
X6418Y488D01*
D02*
X6318Y518D02*
X6216Y730D01*
D02*
X6216Y730D02*
X6149Y722D01*
D02*
X6387Y518D02*
X6318Y518D01*
D02*
X4418Y418D02*
X4418Y719D01*
D02*
X4418Y719D02*
X4339Y798D01*
D02*
X4719Y118D02*
X4418Y418D01*
D02*
X5917Y118D02*
X4719Y118D01*
D02*
X6096Y297D02*
X5917Y118D01*
D02*
X7219Y118D02*
X7497Y397D01*
D02*
X6418Y119D02*
X7219Y118D01*
D02*
X6140Y397D02*
X6418Y119D01*
D02*
X7793Y536D02*
X7544Y701D01*
D02*
X6418Y349D02*
X6418Y388D01*
D02*
X4640Y1197D02*
X4818Y1019D01*
D02*
X4818Y1019D02*
X4988Y1019D01*
D02*
X5414Y427D02*
X5045Y605D01*
D02*
X5388Y1019D02*
X5048Y1019D01*
D02*
X4647Y619D02*
X4988Y619D01*
D02*
X4618Y647D02*
X4618Y690D01*
D02*
X4618Y547D02*
X4618Y590D01*
D02*
X6018Y1919D02*
X6018Y1990D01*
D02*
X5817Y1919D02*
X5896Y1999D01*
D02*
X5518Y1919D02*
X5817Y1919D01*
D02*
X5518Y1619D02*
X5619Y1818D01*
D02*
X5418Y1549D02*
X5419Y1719D01*
D02*
X5419Y1719D02*
X5518Y1919D01*
D02*
X5518Y1318D02*
X5518Y1619D01*
D02*
X5619Y1818D02*
X5918Y1818D01*
D02*
X5432Y1145D02*
X5518Y1318D01*
D02*
X5918Y1818D02*
X6018Y1919D01*
D02*
X5319Y1320D02*
X5397Y1397D01*
D02*
X5319Y1119D02*
X5319Y1320D01*
D02*
X5397Y1040D02*
X5319Y1119D01*
D02*
X5048Y1419D02*
X5319Y1419D01*
D02*
X5319Y1419D02*
X5388Y1419D01*
D02*
X3718Y647D02*
X3718Y690D01*
D02*
X4588Y1219D02*
X4348Y1219D01*
D02*
X3918Y1319D02*
X3918Y918D01*
D02*
X3918Y918D02*
X3998Y839D01*
D02*
X3998Y1398D02*
X3918Y1319D01*
D02*
X4047Y1319D02*
X4288Y1319D01*
D02*
X4047Y1419D02*
X4288Y1419D01*
D02*
X4348Y1419D02*
X4588Y1419D01*
D02*
X3718Y547D02*
X3718Y590D01*
D02*
X3418Y1088D02*
X3418Y849D01*
D02*
X3418Y788D02*
X3418Y549D01*
D02*
X3790Y2219D02*
X3747Y2219D01*
D02*
X3690Y2219D02*
X3647Y2219D01*
D02*
X3718Y2190D02*
X3718Y1447D01*
D02*
X3718Y1390D02*
X3718Y1347D01*
D02*
X3718Y1290D02*
X3718Y1247D01*
D02*
X3718Y1190D02*
X3718Y1147D01*
D02*
X3118Y549D02*
X3118Y788D01*
D02*
X3418Y118D02*
X3994Y503D01*
D02*
X2818Y788D02*
X2818Y549D01*
D02*
X3118Y219D02*
X3418Y219D01*
D02*
X3418Y219D02*
X3994Y603D01*
D02*
X2840Y497D02*
X3118Y219D01*
D02*
X3118Y1088D02*
X3118Y849D01*
D02*
X2518Y788D02*
X2518Y549D01*
D02*
X2740Y497D02*
X3118Y118D01*
D02*
X3118Y118D02*
X3418Y118D01*
D02*
X3218Y418D02*
X3139Y497D01*
D02*
X3519Y418D02*
X3218Y418D01*
D02*
X3693Y506D02*
X3519Y418D01*
D02*
X4122Y713D02*
X4290Y718D01*
D02*
X4122Y713D02*
X4039Y638D01*
D02*
X4118Y1119D02*
X4122Y713D01*
D02*
X4038Y1198D02*
X4118Y1119D01*
D02*
X2818Y1388D02*
X2818Y1218D01*
D02*
X2818Y1218D02*
X2818Y1149D01*
D02*
X2818Y1088D02*
X2818Y849D01*
D02*
X2718Y549D02*
X2718Y788D01*
D02*
X2718Y849D02*
X2718Y1088D01*
D02*
X2718Y1149D02*
X2718Y1388D01*
D02*
X2518Y1388D02*
X2518Y1149D01*
D02*
X2518Y1088D02*
X2518Y849D01*
D02*
X3118Y1388D02*
X3118Y1149D01*
D02*
X3418Y1388D02*
X3418Y1149D01*
D02*
X3318Y549D02*
X3318Y788D01*
D02*
X3318Y849D02*
X3318Y1088D01*
D02*
X3318Y1149D02*
X3318Y1388D01*
D02*
X3218Y549D02*
X3218Y788D01*
D02*
X3218Y849D02*
X3218Y1088D01*
D02*
X3218Y1149D02*
X3218Y1388D01*
D02*
X2618Y549D02*
X2618Y788D01*
D02*
X2618Y849D02*
X2618Y1088D01*
D02*
X2618Y1149D02*
X2618Y1388D01*
D02*
X3519Y818D02*
X3618Y719D01*
D02*
X3519Y1019D02*
X3519Y818D01*
D02*
X3693Y1106D02*
X3519Y1019D01*
D02*
X3618Y719D02*
X3690Y719D01*
D02*
X3990Y819D02*
X3747Y819D01*
D02*
X1318Y992D02*
X1318Y845D01*
D02*
X1219Y618D02*
X1138Y618D01*
D02*
X1300Y700D02*
X1219Y618D01*
D02*
X2097Y1140D02*
X1938Y1298D01*
D02*
X2119Y1818D02*
X2118Y2288D01*
D02*
X2497Y1440D02*
X2119Y1818D01*
D02*
X2488Y1119D02*
X2148Y1119D01*
D02*
X4818Y1419D02*
X4818Y1318D01*
D02*
X4818Y1318D02*
X4645Y1232D01*
D02*
X4619Y1518D02*
X4818Y1419D01*
D02*
X3919Y1518D02*
X4619Y1518D01*
D02*
X3744Y1431D02*
X3919Y1518D01*
D02*
X1490Y1119D02*
X1344Y1119D01*
D02*
X1518Y1090D02*
X1518Y947D01*
G54D26*
D02*
X804Y724D02*
X739Y720D01*
D02*
X818Y1018D02*
X718Y918D01*
D02*
X718Y918D02*
X818Y818D01*
D02*
X818Y818D02*
X804Y724D01*
D02*
X804Y724D02*
X903Y633D01*
D02*
X842Y1018D02*
X818Y1018D01*
G54D25*
D02*
X878Y961D02*
X919Y818D01*
D02*
X919Y818D02*
X1093Y638D01*
D02*
X403Y1307D02*
X341Y1261D01*
D02*
X618Y1219D02*
X436Y1310D01*
D02*
X842Y1175D02*
X618Y1219D01*
D02*
X1218Y1319D02*
X1307Y1142D01*
D02*
X1153Y1319D02*
X1218Y1319D01*
D02*
X2097Y1340D02*
X1938Y1498D01*
D02*
X618Y1338D02*
X618Y1418D01*
D02*
X618Y1418D02*
X718Y1518D01*
D02*
X718Y1518D02*
X1490Y1519D01*
D02*
X842Y1275D02*
X636Y1316D01*
D02*
X618Y1018D02*
X345Y1110D01*
D02*
X707Y842D02*
X618Y1018D01*
D02*
X346Y1176D02*
X618Y1119D01*
D02*
X618Y1119D02*
X842Y1119D01*
D02*
X910Y1401D02*
X879Y1326D01*
D02*
X399Y619D02*
X244Y619D01*
D02*
X499Y819D02*
X244Y819D01*
D02*
X1618Y418D02*
X244Y419D01*
D02*
X1918Y818D02*
X1618Y418D01*
D02*
X1918Y890D02*
X1918Y818D01*
D02*
X217Y719D02*
X122Y640D01*
D02*
X299Y719D02*
X217Y719D01*
D02*
X218Y1118D02*
X218Y1219D01*
D02*
X218Y1219D02*
X243Y1216D01*
D02*
X218Y1018D02*
X218Y1118D01*
D02*
X500Y924D02*
X218Y1018D01*
D02*
X695Y807D02*
X535Y727D01*
G54D26*
D02*
X1018Y1319D02*
X918Y1219D01*
G54D25*
D02*
X7318Y2018D02*
X7149Y2021D01*
D02*
X8219Y2918D02*
X7318Y2018D01*
D02*
X122Y840D02*
X204Y906D01*
G54D26*
D02*
X1918Y1418D02*
X1718Y1418D01*
D02*
X918Y1219D02*
X911Y1219D01*
D02*
X1718Y1418D02*
X1318Y1418D01*
D02*
X1318Y1418D02*
X1019Y1418D01*
D02*
X1019Y1418D02*
X1018Y1319D01*
D02*
X2101Y1236D02*
X1918Y1418D01*
G54D25*
D02*
X218Y317D02*
X122Y397D01*
D02*
X1598Y317D02*
X218Y317D01*
D02*
X8218Y2420D02*
X8118Y2320D01*
D02*
X8218Y2488D02*
X8218Y2420D01*
D02*
X6918Y2218D02*
X6840Y2142D01*
D02*
X7318Y2218D02*
X6918Y2218D01*
D02*
X7618Y3088D02*
X7619Y2719D01*
D02*
X7619Y2719D02*
X7318Y2218D01*
D02*
X7920Y2918D02*
X7318Y2119D01*
D02*
X7918Y3088D02*
X7920Y2918D01*
D02*
X7318Y2119D02*
X7149Y2120D01*
D02*
X8218Y3088D02*
X8219Y2918D01*
D02*
X4388Y5019D02*
X3948Y5019D01*
D02*
X8188Y3919D02*
X7948Y3919D01*
D02*
X7888Y3919D02*
X7648Y3919D01*
D02*
X8188Y3819D02*
X7948Y3819D01*
D02*
X7888Y3819D02*
X7648Y3819D01*
D02*
X8188Y3719D02*
X7948Y3719D01*
D02*
X7888Y3719D02*
X7648Y3719D01*
D02*
X8188Y3619D02*
X7948Y3619D01*
D02*
X7888Y3619D02*
X7648Y3619D01*
D02*
X8118Y2320D02*
X7939Y2320D01*
D02*
X3919Y3218D02*
X3844Y3293D01*
D02*
X3919Y3137D02*
X3919Y3218D01*
D02*
X3618Y2647D02*
X3618Y2699D01*
D02*
X3718Y2699D02*
X3718Y2647D01*
D02*
X3919Y3019D02*
X3919Y2836D01*
D02*
X3844Y3093D02*
X3919Y3019D01*
D02*
X3818Y2887D02*
X3818Y2647D01*
D02*
X6388Y5019D02*
X5948Y5019D01*
D02*
X5888Y5019D02*
X5448Y5019D01*
D02*
X5388Y5019D02*
X4948Y5019D01*
D02*
X4888Y5019D02*
X4448Y5019D01*
D02*
X418Y4619D02*
X345Y4638D01*
D02*
X2419Y3217D02*
X2505Y3045D01*
D02*
X518Y4318D02*
X338Y4499D01*
D02*
X1819Y4318D02*
X518Y4318D01*
D02*
X1898Y4239D02*
X1819Y4318D01*
D02*
X501Y4437D02*
X418Y4619D01*
D02*
X501Y4437D02*
X2219Y4420D01*
D02*
X2219Y4420D02*
X2419Y4019D01*
D02*
X2419Y4019D02*
X2419Y3217D01*
D02*
X2317Y2419D02*
X2317Y2819D01*
D02*
X2317Y2819D02*
X2492Y2906D01*
D02*
X2145Y2332D02*
X2317Y2419D01*
D02*
X2118Y3319D02*
X2118Y3488D01*
D02*
X2498Y2939D02*
X2118Y3319D01*
D02*
X3438Y2640D02*
X3670Y2891D01*
D02*
X3618Y3019D02*
X3618Y2919D01*
D02*
X3618Y2919D02*
X3439Y2739D01*
D02*
X3671Y3087D02*
X3618Y3019D01*
D02*
X3519Y3218D02*
X3670Y3304D01*
D02*
X3519Y2919D02*
X3519Y3218D01*
D02*
X3439Y2839D02*
X3519Y2919D01*
G54D26*
D02*
X818Y2019D02*
X718Y2118D01*
D02*
X718Y2118D02*
X818Y2219D01*
D02*
X818Y2219D02*
X842Y2219D01*
D02*
X820Y1913D02*
X818Y2019D01*
D02*
X903Y1833D02*
X820Y1913D01*
D02*
X820Y1913D02*
X739Y1917D01*
G54D25*
D02*
X1300Y1900D02*
X1219Y1818D01*
D02*
X1219Y1818D02*
X1138Y1818D01*
D02*
X919Y2020D02*
X878Y2161D01*
D02*
X1093Y1838D02*
X919Y2020D01*
D02*
X218Y4318D02*
X122Y4240D01*
D02*
X417Y4318D02*
X218Y4318D01*
D02*
X518Y4217D02*
X417Y4318D01*
D02*
X1490Y4218D02*
X518Y4217D01*
D02*
X518Y4119D02*
X244Y4210D01*
D02*
X2119Y4119D02*
X518Y4119D01*
D02*
X2419Y4019D02*
X2119Y4119D01*
D02*
X346Y2376D02*
X617Y2320D01*
D02*
X617Y2320D02*
X842Y2318D01*
D02*
X345Y2310D02*
X617Y2219D01*
D02*
X617Y2219D02*
X707Y2042D01*
D02*
X5218Y2119D02*
X5218Y1919D01*
D02*
X5218Y1919D02*
X5018Y1719D01*
D02*
X3518Y2119D02*
X3618Y2418D01*
D02*
X6418Y1918D02*
X6418Y1819D01*
D02*
X6418Y1819D02*
X6332Y1732D01*
D02*
X6340Y1999D02*
X6418Y1918D01*
D02*
X3918Y2418D02*
X4995Y1538D01*
D02*
X3618Y2418D02*
X3918Y2418D01*
D02*
X3317Y2118D02*
X3518Y2119D01*
D02*
X2717Y3019D02*
X3317Y2118D01*
D02*
X2547Y3019D02*
X2717Y3019D01*
D02*
X5419Y2219D02*
X5319Y2219D01*
D02*
X5319Y2219D02*
X5218Y2119D01*
D02*
X5496Y2142D02*
X5419Y2219D01*
D02*
X5018Y1719D02*
X5018Y1549D01*
D02*
X6040Y2142D02*
X6118Y2219D01*
D02*
X6118Y2219D02*
X6499Y2219D01*
D02*
X2519Y4820D02*
X2597Y4897D01*
D02*
X2519Y4318D02*
X2519Y4820D01*
D02*
X2597Y4240D02*
X2519Y4318D01*
D02*
X6218Y2053D02*
X6218Y2088D01*
D02*
X6287Y2120D02*
X6249Y2120D01*
D02*
X5319Y1518D02*
X5319Y1799D01*
D02*
X5397Y1440D02*
X5319Y1518D01*
D02*
X6418Y2419D02*
X6696Y2142D01*
D02*
X4537Y2419D02*
X6418Y2419D01*
D02*
X2534Y2294D02*
X2717Y2018D01*
D02*
X2717Y2018D02*
X3398Y2017D01*
D02*
X3611Y2001D02*
X3418Y1619D01*
D02*
X3418Y1619D02*
X3418Y1449D01*
D02*
X2618Y1449D02*
X2618Y1900D01*
D02*
X3518Y2319D02*
X3618Y2519D01*
D02*
X3317Y2218D02*
X3418Y2219D01*
D02*
X3418Y2219D02*
X3518Y2319D01*
D02*
X3618Y2519D02*
X4019Y2519D01*
D02*
X3227Y2401D02*
X3317Y2218D01*
D02*
X4019Y2519D02*
X4518Y2619D01*
D02*
X4518Y2619D02*
X6519Y2619D01*
D02*
X6519Y2619D02*
X6705Y2432D01*
D02*
X2547Y2418D02*
X2999Y2418D01*
D02*
X5536Y2519D02*
X6399Y2519D01*
D02*
X7018Y2819D02*
X7018Y2437D01*
D02*
X7220Y1718D02*
X7408Y2003D01*
D02*
X6418Y1718D02*
X7220Y1718D01*
D02*
X6218Y1518D02*
X6418Y1718D01*
D02*
X6216Y730D02*
X6218Y1518D01*
D02*
X7312Y2337D02*
X7225Y2601D01*
D02*
X6718Y4719D02*
X6631Y4632D01*
D02*
X7319Y4619D02*
X6837Y4619D01*
D02*
X7518Y4219D02*
X7319Y4619D01*
D02*
X7819Y4219D02*
X7518Y4219D01*
D02*
X7919Y4119D02*
X7819Y4219D01*
D02*
X8217Y4219D02*
X8018Y4318D01*
D02*
X7618Y4318D02*
X7419Y4719D01*
D02*
X7419Y4719D02*
X6718Y4719D01*
D02*
X8218Y4049D02*
X8217Y4219D01*
D02*
X8018Y4318D02*
X7618Y4318D01*
D02*
X7519Y3819D02*
X7588Y3819D01*
D02*
X7519Y4018D02*
X7018Y2819D01*
D02*
X7119Y2819D02*
X7519Y3819D01*
D02*
X7119Y2437D02*
X7119Y2819D01*
D02*
X7588Y4018D02*
X7519Y4018D01*
D02*
X7118Y3518D02*
X7407Y3902D01*
D02*
X6317Y4018D02*
X6818Y3518D01*
D02*
X7718Y4738D02*
X7718Y4900D01*
D02*
X4118Y4919D02*
X4518Y4318D01*
D02*
X4518Y4318D02*
X5718Y4318D01*
D02*
X3948Y4919D02*
X4118Y4919D01*
D02*
X5718Y4318D02*
X5796Y4396D01*
D02*
X6818Y3518D02*
X7118Y3518D01*
D02*
X6318Y4318D02*
X6317Y4018D01*
D02*
X6240Y4396D02*
X6318Y4318D01*
D02*
X7918Y4049D02*
X7919Y4119D01*
G54D26*
D02*
X6518Y4019D02*
X6519Y4119D01*
G54D25*
D02*
X2838Y3618D02*
X3318Y3618D01*
D02*
X6918Y4019D02*
X6719Y4019D01*
D02*
X6719Y4019D02*
X6537Y4019D01*
D02*
X7318Y4319D02*
X7318Y4218D01*
G54D26*
D02*
X6519Y4119D02*
X6418Y4319D01*
G54D25*
D02*
X7318Y4218D02*
X7118Y4019D01*
G54D26*
D02*
X6418Y4319D02*
X6418Y4393D01*
G54D25*
D02*
X4535Y4428D02*
X5017Y4719D01*
D02*
X3318Y3618D02*
X4402Y4308D01*
D02*
X5017Y4719D02*
X5518Y4719D01*
D02*
X5518Y4719D02*
X5606Y4631D01*
G54D26*
D02*
X5613Y4606D02*
X5530Y4441D01*
G54D25*
D02*
X6618Y4719D02*
X6137Y4719D01*
D02*
X6897Y4897D02*
X6819Y4819D01*
D02*
X6819Y4819D02*
X6618Y4719D01*
D02*
X7227Y4502D02*
X7318Y4319D01*
D02*
X7118Y4019D02*
X6918Y4019D01*
G54D26*
D02*
X6511Y4030D02*
X6518Y4019D01*
G54D25*
D02*
X7388Y4918D02*
X7318Y4918D01*
D02*
X7318Y4918D02*
X7233Y4832D01*
G54D26*
D02*
X5419Y4419D02*
X5430Y4441D01*
G54D25*
D02*
X4818Y2118D02*
X5100Y2118D01*
D02*
X4718Y2018D02*
X5100Y2018D01*
D02*
X4233Y2407D02*
X4718Y2018D01*
D02*
X2648Y4019D02*
X2999Y4019D01*
D02*
X3318Y3918D02*
X4203Y4606D01*
D02*
X4437Y4719D02*
X4799Y4719D01*
D02*
X2648Y3918D02*
X3318Y3918D01*
G54D26*
D02*
X5230Y4513D02*
X5419Y4419D01*
G54D25*
D02*
X3218Y3819D02*
X3304Y3732D01*
D02*
X2718Y3819D02*
X3218Y3819D01*
D02*
X7118Y3918D02*
X7205Y4005D01*
D02*
X3418Y3418D02*
X4019Y3819D01*
D02*
X2838Y3418D02*
X3418Y3418D01*
D02*
X4019Y3819D02*
X6399Y3818D01*
D02*
X6537Y3918D02*
X7118Y3918D01*
D02*
X2118Y2549D02*
X2119Y2999D01*
D02*
X7211Y4236D02*
X7132Y4391D01*
D02*
X4035Y3310D02*
X4201Y3227D01*
D02*
X4332Y2507D02*
X4818Y2118D01*
D02*
X2640Y3740D02*
X2718Y3819D01*
G54D26*
D02*
X7019Y4318D02*
X7018Y4393D01*
G54D25*
D02*
X1718Y2818D02*
X1917Y2620D01*
D02*
X1917Y2620D02*
X2097Y2440D01*
D02*
X1518Y2818D02*
X1718Y2818D01*
D02*
X1317Y2718D02*
X1518Y2818D01*
D02*
X717Y2718D02*
X1317Y2718D01*
D02*
X519Y2619D02*
X717Y2718D01*
D02*
X519Y2519D02*
X519Y2619D01*
D02*
X850Y2426D02*
X519Y2519D01*
D02*
X1918Y2490D02*
X1917Y2418D01*
D02*
X1917Y2418D02*
X2091Y2332D01*
D02*
X2218Y2518D02*
X2218Y3000D01*
D02*
X2636Y3319D02*
X3418Y3319D01*
D02*
X3418Y3319D02*
X4019Y3719D01*
D02*
X4019Y3719D02*
X6399Y3719D01*
D02*
X2140Y2440D02*
X2218Y2518D01*
G54D26*
D02*
X6918Y4118D02*
X7019Y4318D01*
G54D25*
D02*
X1418Y2319D02*
X1418Y2418D01*
D02*
X828Y2603D02*
X872Y2526D01*
D02*
X1418Y2418D02*
X1498Y2339D01*
D02*
X1337Y2237D02*
X1418Y2319D01*
D02*
X1518Y2147D02*
X1518Y2290D01*
D02*
X1817Y1919D02*
X1519Y1619D01*
D02*
X1717Y2220D02*
X1717Y1919D01*
D02*
X1717Y1919D02*
X1520Y1719D01*
D02*
X1520Y1719D02*
X719Y1719D01*
D02*
X719Y1719D02*
X518Y1819D01*
D02*
X1893Y2306D02*
X1717Y2220D01*
D02*
X518Y1819D02*
X244Y1819D01*
D02*
X1817Y2019D02*
X1817Y1919D01*
D02*
X1898Y2098D02*
X1817Y2019D01*
D02*
X1519Y1619D02*
X244Y1619D01*
D02*
X736Y2513D02*
X853Y2476D01*
D02*
X1219Y2519D02*
X1153Y2518D01*
D02*
X1418Y2418D02*
X1219Y2519D01*
D02*
X500Y2018D02*
X244Y2018D01*
D02*
X346Y2441D02*
X500Y2422D01*
D02*
X537Y2417D02*
X842Y2373D01*
D02*
X217Y2119D02*
X299Y2119D01*
D02*
X204Y1906D02*
X122Y1840D01*
D02*
X418Y2619D02*
X418Y2538D01*
D02*
X602Y2710D02*
X418Y2619D01*
D02*
X259Y2438D02*
X227Y2502D01*
G54D26*
D02*
X731Y2223D02*
X853Y2261D01*
G54D25*
D02*
X122Y2040D02*
X217Y2119D01*
D02*
X818Y3018D02*
X737Y3100D01*
D02*
X1300Y3100D02*
X1219Y3018D01*
D02*
X1219Y3018D02*
X1138Y3019D01*
D02*
X1799Y1619D02*
X1636Y1619D01*
D02*
X203Y1706D02*
X122Y1640D01*
G54D26*
D02*
X1018Y2519D02*
X1019Y2419D01*
D02*
X1084Y2519D02*
X1018Y2519D01*
D02*
X1019Y2419D02*
X897Y2376D01*
G54D25*
D02*
X1219Y2118D02*
X1132Y2033D01*
D02*
X1219Y2219D02*
X1219Y2118D01*
D02*
X1300Y2300D02*
X1219Y2219D01*
D02*
X718Y3319D02*
X818Y3219D01*
D02*
X818Y3219D02*
X737Y3137D01*
D02*
X852Y3461D02*
X718Y3419D01*
D02*
X718Y3419D02*
X718Y3319D01*
D02*
X346Y3519D02*
X518Y3519D01*
D02*
X518Y3519D02*
X704Y3240D01*
D02*
X1518Y3347D02*
X1518Y3490D01*
D02*
X892Y3018D02*
X818Y3018D01*
G54D26*
D02*
X1018Y3818D02*
X1119Y3818D01*
D02*
X1119Y3818D02*
X1118Y3776D01*
D02*
X1018Y3719D02*
X1018Y3818D01*
D02*
X1017Y3618D02*
X1018Y3719D01*
G54D25*
D02*
X619Y3917D02*
X718Y4018D01*
D02*
X432Y3732D02*
X619Y3917D01*
D02*
X1617Y4018D02*
X1819Y3618D01*
D02*
X1819Y3618D02*
X2088Y3618D01*
D02*
X842Y3672D02*
X437Y3716D01*
D02*
X718Y4018D02*
X1617Y4018D01*
D02*
X1119Y3219D02*
X1112Y3045D01*
D02*
X879Y3411D02*
X919Y3318D01*
D02*
X919Y3318D02*
X1119Y3219D01*
D02*
X637Y3519D02*
X842Y3519D01*
D02*
X203Y2906D02*
X122Y2840D01*
D02*
X346Y3581D02*
X842Y3569D01*
D02*
X346Y3641D02*
X518Y3618D01*
D02*
X518Y3618D02*
X842Y3618D01*
G54D26*
D02*
X911Y3618D02*
X1017Y3618D01*
G54D25*
D02*
X818Y3718D02*
X842Y3718D01*
D02*
X868Y3776D02*
X833Y3806D01*
D02*
X1318Y3545D02*
X1318Y3718D01*
D02*
X1318Y3718D02*
X1148Y3761D01*
D02*
X635Y3810D02*
X818Y3718D01*
D02*
X1498Y2698D02*
X1418Y2618D01*
D02*
X318Y3318D02*
X244Y3245D01*
D02*
X499Y3318D02*
X318Y3318D01*
D02*
X1319Y3318D02*
X1037Y3318D01*
D02*
X1418Y3419D02*
X1319Y3318D01*
D02*
X1498Y3698D02*
X1418Y3619D01*
D02*
X1418Y3619D02*
X1418Y3419D01*
D02*
X219Y3318D02*
X218Y3418D01*
D02*
X218Y3418D02*
X118Y3618D01*
D02*
X118Y3618D02*
X218Y3719D01*
D02*
X122Y3240D02*
X219Y3318D01*
D02*
X218Y3719D02*
X296Y3661D01*
D02*
X419Y3018D02*
X244Y3019D01*
D02*
X1618Y2919D02*
X619Y2919D01*
D02*
X1719Y3318D02*
X1618Y2919D01*
D02*
X1898Y3498D02*
X1719Y3318D01*
D02*
X619Y2919D02*
X419Y3018D01*
D02*
X799Y2818D02*
X244Y2819D01*
D02*
X1418Y2618D02*
X937Y2618D01*
D02*
X2720Y4120D02*
X2640Y4040D01*
D02*
X2720Y4218D02*
X2720Y4120D01*
D02*
X1947Y3918D02*
X2018Y3918D01*
D02*
X2018Y3918D02*
X2105Y3745D01*
D02*
X718Y3918D02*
X1490Y3918D01*
D02*
X632Y3832D02*
X718Y3918D01*
D02*
X219Y3119D02*
X399Y3119D01*
D02*
X122Y3040D02*
X219Y3119D01*
D02*
X6237Y4619D02*
X6418Y4619D01*
D02*
X6418Y4619D02*
X6496Y4542D01*
D02*
X6718Y4599D02*
X6718Y4551D01*
D02*
X6418Y4818D02*
X6599Y4818D01*
D02*
X4337Y4818D02*
X6418Y4818D01*
D02*
X2648Y4719D02*
X3319Y4719D01*
D02*
X3319Y4719D02*
X4000Y4719D01*
D02*
X2518Y3818D02*
X2597Y3740D01*
D02*
X2597Y4097D02*
X2517Y4019D01*
D02*
X2518Y4019D02*
X2518Y3818D01*
D02*
X2640Y4297D02*
X2720Y4218D01*
D02*
X7500Y5119D02*
X5837Y5119D01*
D02*
X6388Y4919D02*
X6137Y4919D01*
D02*
X3418Y3519D02*
X2837Y3519D01*
D02*
X4299Y1718D02*
X4038Y1718D01*
D02*
X4038Y1618D02*
X4299Y1618D01*
D02*
X5327Y3202D02*
X5410Y3035D01*
D02*
X4003Y3907D02*
X3418Y3519D01*
D02*
X6099Y3519D02*
X5537Y3519D01*
G54D26*
D02*
X5818Y4618D02*
X6119Y4618D01*
D02*
X5730Y4442D02*
X5818Y4618D01*
D02*
X6119Y4618D02*
X6200Y4538D01*
G54D25*
D02*
X2718Y3619D02*
X2718Y3519D01*
D02*
X2718Y3519D02*
X2536Y3427D01*
D02*
X2819Y3718D02*
X2718Y3619D01*
D02*
X3100Y3718D02*
X2819Y3718D01*
D02*
X2310Y3536D02*
X2219Y3718D01*
D02*
X2219Y3718D02*
X2148Y3718D01*
D02*
X5899Y3419D02*
X4118Y3419D01*
D02*
X4118Y3419D02*
X3936Y3510D01*
D02*
X6896Y4396D02*
X6832Y4332D01*
D02*
X4399Y1919D02*
X4137Y1919D01*
D02*
X4299Y1819D02*
X4038Y1819D01*
D02*
X6637Y4118D02*
X6918Y4118D01*
D02*
X6532Y4332D02*
X6596Y4396D01*
D02*
X2919Y4418D02*
X3303Y4131D01*
D02*
X4137Y3619D02*
X6399Y3619D01*
D02*
X6837Y3819D02*
X6899Y3819D01*
D02*
X2648Y4418D02*
X2919Y4418D01*
D02*
X7018Y3800D02*
X7018Y3637D01*
G54D26*
D02*
X853Y1061D02*
X718Y1018D01*
D02*
X718Y1018D02*
X727Y1008D01*
G54D25*
D02*
X4319Y4099D02*
X4319Y3937D01*
D02*
X6118Y3318D02*
X6209Y3501D01*
D02*
X4436Y3319D02*
X6118Y3318D01*
D02*
X2648Y4619D02*
X3799Y4619D01*
G54D26*
D02*
X1219Y918D02*
X1119Y819D01*
D02*
X1018Y918D02*
X1018Y1118D01*
D02*
X1119Y819D02*
X1018Y918D01*
D02*
X1018Y1118D02*
X897Y1161D01*
D02*
X1219Y1018D02*
X1219Y918D01*
D02*
X1304Y1104D02*
X1219Y1018D01*
G54D25*
D02*
X4518Y438D02*
X4518Y599D01*
G36*
X3787Y2881D02*
X3787Y2956D01*
X3850Y2956D01*
X3850Y2881D01*
X3787Y2881D01*
G37*
D02*
G36*
X3665Y2881D02*
X3665Y2956D01*
X3728Y2956D01*
X3728Y2881D01*
X3665Y2881D01*
G37*
D02*
G04 End of Copper1*
M02*