G04 MADE WITH FRITZING*
G04 WWW.FRITZING.ORG*
G04 DOUBLE SIDED*
G04 HOLES PLATED*
G04 CONTOUR ON CENTER OF CONTOUR VECTOR*
%ASAXBY*%
%FSLAX23Y23*%
%MOIN*%
%OFA0B0*%
%SFA1.0B1.0*%
%ADD10C,0.039370*%
%ADD11C,0.078000*%
%ADD12C,0.079370*%
%ADD13C,0.075000*%
%ADD14C,0.065278*%
%ADD15C,0.077778*%
%ADD16C,0.049370*%
%ADD17C,0.092677*%
%ADD18C,0.070925*%
%ADD19C,0.070866*%
%ADD20C,0.070000*%
%ADD21R,0.079370X0.079370*%
%ADD22R,0.075000X0.075000*%
%ADD23C,0.024000*%
%ADD24C,0.016000*%
%LNCOPPER0*%
G90*
G70*
G54D10*
X518Y819D03*
X418Y619D03*
X918Y1419D03*
X618Y1319D03*
X318Y719D03*
X518Y719D03*
X518Y918D03*
X718Y1019D03*
X1617Y317D03*
X419Y1318D03*
X218Y919D03*
X7920Y2320D03*
X3919Y2817D03*
X3718Y2718D03*
X3919Y3119D03*
X3618Y2718D03*
X6318Y1719D03*
X6518Y2219D03*
X5319Y1818D03*
X2618Y1919D03*
X3620Y2018D03*
X3417Y2017D03*
X4518Y2419D03*
X6718Y2419D03*
X3218Y2419D03*
X3018Y2418D03*
X5517Y2519D03*
X6418Y2519D03*
X7318Y2319D03*
X7418Y2019D03*
X7220Y2619D03*
X7018Y2418D03*
X7119Y2418D03*
X6818Y4619D03*
X7419Y3918D03*
X7718Y4719D03*
X7718Y4919D03*
X7218Y4519D03*
X7220Y4819D03*
X4518Y4419D03*
X4418Y4319D03*
X5619Y4618D03*
X5218Y4519D03*
X4818Y4719D03*
X4418Y4719D03*
X4218Y4618D03*
X5119Y2018D03*
X4218Y2419D03*
X3018Y4019D03*
X4318Y2519D03*
X5119Y2118D03*
X4218Y3219D03*
X4018Y3319D03*
X3317Y3718D03*
X6518Y4019D03*
X7318Y3919D03*
X7219Y4219D03*
X7218Y4019D03*
X6518Y3919D03*
X6418Y3818D03*
X2119Y3018D03*
X2819Y3418D03*
X6618Y4119D03*
X6418Y3719D03*
X2218Y3019D03*
X2617Y3319D03*
X818Y2619D03*
X718Y2519D03*
X619Y2718D03*
X519Y2018D03*
X519Y2419D03*
X318Y2119D03*
X718Y2219D03*
X218Y2519D03*
X418Y2519D03*
X218Y1919D03*
X1118Y2019D03*
X218Y1719D03*
X1618Y1619D03*
X1818Y1619D03*
X418Y3719D03*
X218Y2918D03*
X618Y3519D03*
X818Y3819D03*
X918Y2619D03*
X818Y2818D03*
X1018Y3318D03*
X518Y3319D03*
X618Y3819D03*
X418Y3119D03*
X4019Y4719D03*
X4318Y4818D03*
X6718Y4618D03*
X6618Y4819D03*
X6618Y4618D03*
X6218Y4619D03*
X6118Y4919D03*
X5818Y5119D03*
X7519Y5119D03*
X6118Y4719D03*
X2818Y3519D03*
X4019Y3918D03*
X5518Y3519D03*
X6118Y3519D03*
X5318Y3219D03*
X5419Y3018D03*
X4019Y1618D03*
X4318Y1618D03*
X4318Y1718D03*
X4019Y1718D03*
X4019Y1819D03*
X4318Y1819D03*
X4118Y1919D03*
X4418Y1919D03*
X7018Y3819D03*
X7018Y3619D03*
X5918Y3419D03*
X3919Y3519D03*
X3119Y3718D03*
X2819Y3618D03*
X2318Y3519D03*
X2519Y3418D03*
X6918Y3819D03*
X6819Y3819D03*
X6418Y3619D03*
X3318Y4119D03*
X4118Y3619D03*
X6819Y4318D03*
X6518Y4319D03*
X6418Y4118D03*
X6218Y3518D03*
X4319Y3918D03*
X4418Y3319D03*
X4319Y4118D03*
X3818Y4619D03*
X4518Y419D03*
X4518Y618D03*
G54D11*
X7918Y4019D03*
X7918Y3919D03*
X7918Y3819D03*
X7918Y3719D03*
X7918Y3619D03*
X7918Y3519D03*
X8218Y4019D03*
X8218Y3919D03*
X8218Y3819D03*
X8218Y3719D03*
X8218Y3619D03*
X8218Y3519D03*
X7618Y4019D03*
X7618Y3919D03*
X7618Y3819D03*
X7618Y3719D03*
X7618Y3619D03*
X7618Y3519D03*
X2118Y1319D03*
X2118Y1219D03*
X2118Y1119D03*
X2118Y2519D03*
X2118Y2419D03*
X2118Y2319D03*
X2118Y3719D03*
X2118Y3619D03*
X2118Y3519D03*
X2618Y4919D03*
X2618Y4819D03*
X2618Y4719D03*
X2618Y4619D03*
X2618Y4519D03*
X2618Y4419D03*
X2618Y4319D03*
X2618Y4219D03*
X2618Y4119D03*
X2618Y4019D03*
X2618Y3919D03*
X2618Y3819D03*
X2618Y3719D03*
X2618Y3619D03*
X5418Y4919D03*
X5418Y5019D03*
X7918Y4519D03*
X7918Y4619D03*
X8218Y3119D03*
X8218Y3219D03*
X8218Y4519D03*
X8218Y4619D03*
X7918Y3119D03*
X7918Y3219D03*
X6418Y4919D03*
X6418Y5019D03*
X7418Y4919D03*
X7418Y5019D03*
X7618Y4519D03*
X7618Y4619D03*
X8218Y2519D03*
X8218Y2619D03*
X5418Y1119D03*
X5418Y1019D03*
X5418Y1519D03*
X5418Y1419D03*
X5918Y4919D03*
X5918Y5019D03*
X4918Y4919D03*
X4918Y5019D03*
X6918Y4919D03*
X6918Y5019D03*
X4418Y4919D03*
X4418Y5019D03*
X3918Y4919D03*
X3918Y5019D03*
G54D12*
X7518Y1519D03*
X7818Y1519D03*
X7518Y1419D03*
X7818Y1419D03*
X7518Y1319D03*
X7818Y1319D03*
X7518Y1219D03*
X7818Y1219D03*
X7518Y1119D03*
X7818Y1119D03*
X7518Y1019D03*
X7818Y1019D03*
X7518Y919D03*
X7818Y919D03*
X7518Y819D03*
X7818Y819D03*
X7518Y719D03*
X7818Y719D03*
X7518Y619D03*
X7818Y619D03*
X7518Y519D03*
X7818Y519D03*
X7518Y419D03*
X7818Y419D03*
X7518Y319D03*
X7818Y319D03*
X7518Y219D03*
X7818Y219D03*
X6118Y1519D03*
X6418Y1519D03*
X6118Y1419D03*
X6418Y1419D03*
X6118Y1319D03*
X6418Y1319D03*
X6118Y1219D03*
X6418Y1219D03*
X6118Y1119D03*
X6418Y1119D03*
X6118Y1019D03*
X6418Y1019D03*
X6118Y919D03*
X6418Y919D03*
X6118Y819D03*
X6418Y819D03*
X6118Y719D03*
X6418Y719D03*
X6118Y619D03*
X6418Y619D03*
X6118Y519D03*
X6418Y519D03*
X6118Y419D03*
X6418Y419D03*
X6118Y319D03*
X6418Y319D03*
X6118Y219D03*
X6418Y219D03*
G54D11*
X8218Y1519D03*
X8218Y1369D03*
X8218Y1219D03*
X8218Y1069D03*
X8218Y919D03*
X8218Y769D03*
X8218Y619D03*
X8218Y469D03*
X7118Y1519D03*
X7118Y1369D03*
X7118Y1219D03*
X7118Y1069D03*
X7118Y919D03*
X7118Y769D03*
X7118Y619D03*
X7118Y469D03*
X6818Y1519D03*
X6818Y1369D03*
X6818Y1219D03*
X6818Y1069D03*
X6818Y919D03*
X6818Y769D03*
X6818Y619D03*
X6818Y469D03*
X5718Y1519D03*
X5718Y1369D03*
X5718Y1219D03*
X5718Y1069D03*
X5718Y919D03*
X5718Y769D03*
X5718Y619D03*
X5718Y469D03*
G54D13*
X4318Y819D03*
X4618Y819D03*
X4318Y719D03*
X4618Y719D03*
X4318Y619D03*
X4618Y619D03*
X4318Y519D03*
X4618Y519D03*
X3718Y819D03*
X4018Y819D03*
X3718Y719D03*
X4018Y719D03*
X3718Y619D03*
X4018Y619D03*
X3718Y519D03*
X4018Y519D03*
X3718Y1419D03*
X4018Y1419D03*
X3718Y1319D03*
X4018Y1319D03*
X3718Y1219D03*
X4018Y1219D03*
X3718Y1119D03*
X4018Y1119D03*
G54D11*
X4618Y1419D03*
X4618Y1319D03*
X4618Y1219D03*
X4318Y1419D03*
X4318Y1319D03*
X4318Y1219D03*
X7618Y3119D03*
X7618Y3219D03*
G54D13*
X3618Y2619D03*
X3618Y2219D03*
X3718Y2619D03*
X3718Y2219D03*
X3818Y2619D03*
X3818Y2219D03*
X1518Y4219D03*
X1918Y4219D03*
G54D11*
X7618Y2119D03*
X7618Y2019D03*
X8218Y2119D03*
X8218Y2019D03*
X7918Y2119D03*
X7918Y2019D03*
X5018Y719D03*
X5018Y619D03*
X5018Y1119D03*
X5018Y1019D03*
X5018Y1519D03*
X5018Y1419D03*
G54D14*
X6717Y2319D03*
X6817Y2319D03*
X6917Y2319D03*
X7017Y2319D03*
X7117Y2319D03*
X6257Y4219D03*
X6157Y4219D03*
X6057Y4219D03*
X5957Y4219D03*
X5857Y4219D03*
X5757Y4219D03*
X5657Y4219D03*
X5557Y4219D03*
X5457Y4219D03*
X5357Y4219D03*
X7117Y4219D03*
X7017Y4219D03*
X6917Y4219D03*
X6817Y4219D03*
X6717Y4219D03*
X6617Y4219D03*
X6517Y4219D03*
X6417Y4219D03*
X5817Y2319D03*
X5717Y2319D03*
X5917Y2319D03*
X6017Y2319D03*
X6117Y2319D03*
X6217Y2319D03*
X6317Y2319D03*
X6417Y2319D03*
X6617Y2319D03*
X5318Y2120D03*
X5418Y2120D03*
X5518Y2120D03*
X5618Y2120D03*
X5718Y2120D03*
X5818Y2120D03*
X5918Y2120D03*
X6018Y2120D03*
X6118Y2120D03*
X6218Y2120D03*
X6318Y2120D03*
X6418Y2120D03*
X6518Y2120D03*
X6618Y2120D03*
X6718Y2120D03*
X6818Y2120D03*
X6918Y2120D03*
X7018Y2120D03*
X7118Y2120D03*
X5318Y2022D03*
X5418Y2022D03*
X5518Y2022D03*
X5618Y2022D03*
X5718Y2022D03*
X5818Y2022D03*
X5918Y2022D03*
X6018Y2022D03*
X6118Y2022D03*
X6218Y2022D03*
X6318Y2022D03*
X6418Y2022D03*
X6518Y2022D03*
X6618Y2022D03*
X6718Y2022D03*
X6818Y2022D03*
X6918Y2022D03*
X7018Y2022D03*
X7118Y2022D03*
X5318Y4520D03*
X5418Y4520D03*
X5518Y4520D03*
X5618Y4520D03*
X5718Y4520D03*
X5818Y4520D03*
X5918Y4520D03*
X6018Y4520D03*
X6118Y4520D03*
X6218Y4520D03*
X6318Y4520D03*
X6418Y4520D03*
X6518Y4520D03*
X6618Y4520D03*
X6718Y4520D03*
X6818Y4520D03*
X6918Y4520D03*
X7018Y4520D03*
X7118Y4520D03*
X5318Y4419D03*
X5418Y4419D03*
X5518Y4419D03*
X5618Y4419D03*
X5718Y4419D03*
X5818Y4419D03*
X5918Y4419D03*
X6018Y4419D03*
X6118Y4419D03*
X6218Y4419D03*
X6318Y4419D03*
X6418Y4419D03*
X6518Y4419D03*
X6618Y4419D03*
X6718Y4419D03*
X6818Y4419D03*
X6918Y4419D03*
X7018Y4419D03*
X7118Y4419D03*
G54D15*
X3418Y2319D03*
X3418Y2419D03*
X3418Y2519D03*
X3418Y2619D03*
X3418Y2719D03*
X3418Y2819D03*
X3418Y2919D03*
X3418Y3019D03*
X2518Y3019D03*
X2518Y2919D03*
X2518Y2819D03*
X2518Y2719D03*
X2518Y2619D03*
X2518Y2519D03*
X2518Y2419D03*
X2518Y2319D03*
G54D16*
X318Y1244D03*
X318Y1182D03*
X318Y1119D03*
X271Y1213D03*
X271Y1150D03*
G54D17*
X117Y1038D03*
X117Y1325D03*
G54D16*
X318Y2444D03*
X318Y2382D03*
X318Y2319D03*
X271Y2413D03*
X271Y2350D03*
G54D17*
X117Y2238D03*
X117Y2525D03*
G54D16*
X318Y3644D03*
X318Y3582D03*
X318Y3519D03*
X271Y3613D03*
X271Y3550D03*
G54D17*
X117Y3438D03*
X117Y3725D03*
G54D16*
X318Y4644D03*
X318Y4582D03*
X318Y4519D03*
X271Y4613D03*
X271Y4550D03*
G54D17*
X117Y4438D03*
X117Y4725D03*
G54D11*
X2818Y519D03*
X2718Y519D03*
X2618Y519D03*
X2518Y519D03*
X3418Y519D03*
X3318Y519D03*
X3218Y519D03*
X3118Y519D03*
X2818Y819D03*
X2718Y819D03*
X2618Y819D03*
X2518Y819D03*
X3418Y819D03*
X3318Y819D03*
X3218Y819D03*
X3118Y819D03*
X2818Y1119D03*
X2718Y1119D03*
X2618Y1119D03*
X2518Y1119D03*
X3418Y1119D03*
X3318Y1119D03*
X3218Y1119D03*
X3118Y1119D03*
X2818Y1419D03*
X2718Y1419D03*
X2618Y1419D03*
X2518Y1419D03*
X3418Y1419D03*
X3318Y1419D03*
X3218Y1419D03*
X3118Y1419D03*
G54D18*
X1111Y619D03*
G54D19*
X918Y619D03*
G54D18*
X1112Y1818D03*
G54D19*
X918Y1818D03*
G54D18*
X1112Y3019D03*
G54D19*
X918Y3019D03*
G54D20*
X1318Y1018D03*
X1318Y1119D03*
X718Y819D03*
X718Y719D03*
X1318Y819D03*
X1318Y719D03*
X1318Y2319D03*
X1318Y2218D03*
X1318Y2019D03*
X1318Y1918D03*
X718Y2019D03*
X718Y1918D03*
X1318Y3418D03*
X1318Y3519D03*
X1318Y3219D03*
X1318Y3119D03*
X718Y3219D03*
X718Y3119D03*
G54D13*
X1518Y1319D03*
X1918Y1319D03*
X1518Y2519D03*
X1918Y2519D03*
X1518Y3719D03*
X1918Y3719D03*
X1518Y1519D03*
X1918Y1519D03*
X1518Y2719D03*
X1918Y2719D03*
X1518Y3919D03*
X1918Y3919D03*
X1518Y1119D03*
X1918Y1119D03*
X1518Y2318D03*
X1918Y2318D03*
X1518Y3519D03*
X1918Y3519D03*
X1518Y919D03*
X1918Y919D03*
X1518Y2118D03*
X1918Y2118D03*
X1518Y3319D03*
X1918Y3319D03*
G54D21*
X7518Y1518D03*
X6118Y1518D03*
G54D22*
X4318Y819D03*
X3718Y819D03*
X3718Y1419D03*
G54D23*
X6319Y118D02*
X6140Y297D01*
D02*
X7219Y118D02*
X6319Y118D01*
D02*
X7493Y301D02*
X7219Y118D01*
D02*
X4618Y520D02*
X4613Y547D01*
D02*
X4347Y519D02*
X4618Y520D01*
D02*
X5719Y317D02*
X6097Y697D01*
D02*
X4718Y819D02*
X5017Y317D01*
D02*
X5017Y317D02*
X5719Y317D01*
D02*
X4647Y819D02*
X4718Y819D01*
D02*
X5117Y1019D02*
X5039Y1097D01*
D02*
X5117Y819D02*
X5117Y1019D01*
D02*
X5039Y740D02*
X5117Y819D01*
D02*
X5119Y1420D02*
X5040Y1497D01*
D02*
X5119Y1217D02*
X5119Y1420D01*
D02*
X5040Y1140D02*
X5119Y1217D01*
D02*
X4337Y1618D02*
X4719Y1619D01*
D02*
X4818Y1518D02*
X4818Y1419D01*
D02*
X4818Y1419D02*
X4719Y1318D01*
D02*
X4719Y1619D02*
X4818Y1518D01*
D02*
X4719Y1318D02*
X4648Y1318D01*
D02*
X3919Y1618D02*
X4000Y1618D01*
D02*
X3818Y1518D02*
X3919Y1618D01*
D02*
X3818Y818D02*
X3818Y1518D01*
D02*
X3993Y731D02*
X3818Y818D01*
D02*
X4318Y919D02*
X4318Y847D01*
D02*
X4118Y1118D02*
X4318Y919D01*
D02*
X4047Y1118D02*
X4118Y1118D01*
D02*
X4219Y818D02*
X4290Y818D01*
D02*
X4118Y519D02*
X4219Y818D01*
D02*
X4047Y519D02*
X4118Y519D01*
D02*
X4518Y1318D02*
X4597Y1397D01*
D02*
X4518Y1019D02*
X4518Y1318D01*
D02*
X4605Y844D02*
X4518Y1019D01*
D02*
X6218Y520D02*
X6140Y440D01*
G54D24*
D02*
X7118Y3718D02*
X7309Y3909D01*
D02*
X6918Y3718D02*
X7118Y3718D01*
G54D23*
D02*
X7519Y4318D02*
X7818Y4318D01*
D02*
X7327Y3935D02*
X7519Y4318D01*
G54D24*
D02*
X6619Y4319D02*
X6718Y4118D01*
G54D23*
D02*
X8018Y4120D02*
X8018Y1918D01*
D02*
X7818Y4318D02*
X8018Y4120D01*
G54D24*
D02*
X6718Y4118D02*
X6918Y3718D01*
G54D23*
D02*
X8018Y1918D02*
X7619Y1718D01*
D02*
X7619Y1718D02*
X6418Y1718D01*
D02*
X6418Y1718D02*
X6218Y1420D01*
D02*
X6218Y1420D02*
X6218Y520D01*
G54D24*
D02*
X6537Y4400D02*
X6619Y4319D01*
G54D23*
D02*
X4501Y626D02*
X4344Y706D01*
D02*
X4818Y219D02*
X4534Y408D01*
D02*
X5817Y219D02*
X4818Y219D01*
D02*
X6093Y402D02*
X5817Y219D01*
D02*
X2619Y418D02*
X2540Y497D01*
D02*
X3017Y418D02*
X2619Y418D01*
D02*
X3097Y497D02*
X3017Y418D01*
D02*
X3319Y719D02*
X3240Y797D01*
D02*
X3618Y719D02*
X3319Y719D01*
D02*
X3698Y798D02*
X3618Y719D01*
D02*
X3118Y719D02*
X3197Y797D01*
D02*
X2718Y719D02*
X3118Y719D01*
D02*
X2640Y797D02*
X2718Y719D01*
D02*
X1493Y1306D02*
X535Y827D01*
D02*
X619Y518D02*
X435Y610D01*
D02*
X1418Y518D02*
X619Y518D01*
D02*
X1918Y1018D02*
X1418Y518D01*
D02*
X1918Y1090D02*
X1918Y1018D01*
D02*
X1519Y1018D02*
X1344Y1018D01*
D02*
X1818Y1218D02*
X1519Y1018D01*
D02*
X1898Y1298D02*
X1818Y1218D01*
D02*
X1119Y818D02*
X744Y819D01*
D02*
X1300Y1000D02*
X1119Y818D01*
D02*
X319Y919D02*
X318Y737D01*
D02*
X606Y1304D02*
X319Y919D01*
D02*
X418Y918D02*
X418Y818D01*
D02*
X818Y1419D02*
X418Y918D01*
D02*
X418Y818D02*
X504Y732D01*
D02*
X899Y1419D02*
X818Y1419D01*
D02*
X701Y1010D02*
X535Y927D01*
D02*
X2019Y817D02*
X1629Y332D01*
D02*
X2019Y1119D02*
X2019Y817D01*
D02*
X2097Y1197D02*
X2019Y1119D01*
D02*
X419Y1119D02*
X419Y1300D01*
D02*
X232Y932D02*
X419Y1119D01*
D02*
X7906Y2306D02*
X7818Y2218D01*
D02*
X7818Y1919D02*
X7618Y1817D01*
D02*
X7818Y2218D02*
X7818Y1919D01*
D02*
X7618Y1817D02*
X6218Y1817D01*
D02*
X6218Y1817D02*
X6132Y1994D01*
D02*
X3817Y2818D02*
X3731Y2731D01*
D02*
X3900Y2817D02*
X3817Y2818D01*
D02*
X3618Y2818D02*
X3919Y3019D01*
D02*
X3919Y3019D02*
X3919Y3100D01*
D02*
X3618Y2737D02*
X3618Y2818D01*
D02*
X2220Y4820D02*
X1931Y4244D01*
D02*
X2588Y4819D02*
X2220Y4820D01*
D02*
X2018Y4119D02*
X1939Y4198D01*
D02*
X2018Y3819D02*
X2018Y4119D01*
D02*
X1938Y3739D02*
X2018Y3819D01*
D02*
X1917Y3617D02*
X1918Y3690D01*
D02*
X2091Y3532D02*
X1917Y3617D01*
D02*
X2919Y1820D02*
X2142Y1237D01*
D02*
X4000Y1819D02*
X2919Y1820D01*
D02*
X5217Y1820D02*
X4337Y1819D01*
D02*
X5396Y2000D02*
X5217Y1820D01*
D02*
X2918Y1919D02*
X2142Y1337D01*
D02*
X4099Y1919D02*
X2918Y1919D01*
D02*
X5018Y2220D02*
X4919Y1919D01*
D02*
X5317Y2220D02*
X5018Y2220D01*
D02*
X4919Y1919D02*
X4437Y1919D01*
D02*
X5396Y2142D02*
X5317Y2220D01*
D02*
X3319Y1620D02*
X3318Y1449D01*
D02*
X3518Y1719D02*
X3319Y1620D01*
D02*
X4000Y1718D02*
X3518Y1719D01*
D02*
X6299Y1719D02*
X4337Y1718D01*
D02*
X6619Y2518D02*
X7418Y2518D01*
D02*
X6519Y2219D02*
X6619Y2518D01*
D02*
X6535Y2227D02*
X6519Y2219D01*
D02*
X7418Y2518D02*
X7605Y2145D01*
G54D24*
D02*
X5518Y1919D02*
X5607Y2097D01*
D02*
X5331Y1824D02*
X5518Y1919D01*
G54D23*
D02*
X2918Y4019D02*
X2643Y4202D01*
D02*
X2918Y3418D02*
X2918Y4019D01*
D02*
X2919Y2218D02*
X2918Y3418D01*
D02*
X2631Y1932D02*
X2919Y2218D01*
G54D24*
D02*
X6218Y4318D02*
X6119Y3719D01*
G54D23*
D02*
X6119Y3719D02*
X4217Y2018D01*
D02*
X4217Y2018D02*
X3639Y2018D01*
G54D24*
D02*
X6136Y4400D02*
X6218Y4318D01*
G54D23*
D02*
X3431Y2031D02*
X3517Y2117D01*
D02*
X4118Y2119D02*
X4503Y2407D01*
D02*
X3517Y2117D02*
X4118Y2119D01*
D02*
X5619Y2219D02*
X6017Y2219D01*
D02*
X6017Y2219D02*
X6096Y2142D01*
D02*
X5518Y2320D02*
X5619Y2219D01*
D02*
X7201Y2619D02*
X5818Y2619D01*
D02*
X5818Y2619D02*
X5518Y2418D01*
D02*
X5518Y2418D02*
X5518Y2320D01*
D02*
X3037Y2418D02*
X3199Y2418D01*
G54D24*
D02*
X6418Y2219D02*
X6241Y2131D01*
G54D23*
D02*
X5418Y2319D02*
X5418Y2419D01*
D02*
X5418Y2419D02*
X5504Y2505D01*
G54D24*
D02*
X6428Y2509D02*
X6518Y2419D01*
D02*
X6518Y2419D02*
X6418Y2219D01*
G54D23*
D02*
X5596Y2142D02*
X5418Y2319D01*
D02*
X7412Y2037D02*
X7324Y2300D01*
D02*
X7518Y3618D02*
X7225Y2637D01*
D02*
X7588Y3618D02*
X7518Y3618D01*
G54D24*
D02*
X6618Y2219D02*
X6712Y2407D01*
D02*
X6618Y2145D02*
X6618Y2219D01*
D02*
X6917Y2219D02*
X6918Y2145D01*
D02*
X7012Y2406D02*
X6917Y2219D01*
D02*
X7018Y2219D02*
X7112Y2406D01*
D02*
X7018Y2145D02*
X7018Y2219D01*
G54D23*
D02*
X7040Y1999D02*
X7119Y1919D01*
D02*
X7119Y1919D02*
X7618Y1919D01*
D02*
X7719Y3618D02*
X7640Y3697D01*
D02*
X7719Y2018D02*
X7719Y3618D01*
D02*
X7618Y1919D02*
X7719Y2018D01*
D02*
X6718Y4919D02*
X6618Y4919D01*
D02*
X6618Y4919D02*
X6519Y4719D01*
D02*
X6819Y4818D02*
X6718Y4919D01*
D02*
X6818Y4637D02*
X6819Y4818D01*
D02*
X6519Y4719D02*
X6340Y4542D01*
D02*
X7437Y3918D02*
X7588Y3918D01*
D02*
X5518Y4618D02*
X5441Y4542D01*
D02*
X5518Y4819D02*
X5518Y4618D01*
D02*
X5440Y4897D02*
X5518Y4819D01*
D02*
X5919Y4618D02*
X5841Y4542D01*
D02*
X5918Y4888D02*
X5919Y4618D01*
D02*
X6018Y4618D02*
X5940Y4542D01*
D02*
X6109Y4902D02*
X6018Y4719D01*
D02*
X6018Y4719D02*
X6018Y4618D01*
D02*
X5319Y4618D02*
X5319Y4551D01*
D02*
X5118Y4918D02*
X5319Y4618D01*
D02*
X4948Y4918D02*
X5118Y4918D01*
D02*
X5819Y4319D02*
X5896Y4396D01*
D02*
X4818Y4319D02*
X5819Y4319D01*
D02*
X4619Y4918D02*
X4818Y4319D01*
D02*
X4448Y4918D02*
X4619Y4918D01*
D02*
X6519Y4819D02*
X6519Y4918D01*
D02*
X6519Y4918D02*
X6440Y4997D01*
D02*
X6240Y4542D02*
X6519Y4819D01*
D02*
X6919Y4719D02*
X6918Y4551D01*
D02*
X7119Y4919D02*
X6919Y4719D01*
D02*
X7618Y4819D02*
X7317Y4819D01*
D02*
X7317Y4819D02*
X7219Y4919D01*
D02*
X7219Y4919D02*
X7119Y4919D01*
D02*
X7918Y4820D02*
X7618Y4819D01*
D02*
X8197Y4540D02*
X7918Y4820D01*
D02*
X5810Y5102D02*
X5532Y4548D01*
D02*
X7705Y4932D02*
X7533Y5106D01*
D02*
X7897Y4540D02*
X7732Y4705D01*
G54D24*
D02*
X6918Y4319D02*
X6836Y4400D01*
D02*
X7219Y4318D02*
X6918Y4319D01*
D02*
X7596Y4507D02*
X7219Y4318D01*
G54D23*
D02*
X7219Y4800D02*
X7218Y4537D01*
D02*
X4432Y4332D02*
X4505Y4405D01*
D02*
X4835Y4710D02*
X5201Y4527D01*
D02*
X4235Y4627D02*
X4401Y4710D01*
D02*
X5138Y2019D02*
X5287Y2021D01*
D02*
X3037Y4019D02*
X3317Y4019D01*
D02*
X3317Y4019D02*
X4118Y3519D01*
D02*
X4118Y3519D02*
X4118Y2718D01*
D02*
X4118Y2718D02*
X4212Y2437D01*
D02*
X5138Y2118D02*
X5287Y2119D01*
D02*
X4218Y3200D02*
X4218Y2718D01*
D02*
X3334Y3709D02*
X4002Y3328D01*
D02*
X4218Y2718D02*
X4309Y2536D01*
D02*
X7218Y4037D02*
X7219Y4200D01*
D02*
X6432Y3831D02*
X6505Y3905D01*
D02*
X2117Y3119D02*
X2617Y3418D01*
D02*
X2617Y3418D02*
X2800Y3418D01*
D02*
X2118Y3037D02*
X2117Y3119D01*
D02*
X6618Y3918D02*
X6618Y4100D01*
D02*
X6432Y3732D02*
X6618Y3918D01*
D02*
X2233Y3030D02*
X2602Y3308D01*
D02*
X2018Y2718D02*
X2105Y2545D01*
D02*
X1947Y2718D02*
X2018Y2718D01*
D02*
X1418Y2219D02*
X1337Y2300D01*
D02*
X1418Y2118D02*
X1418Y2219D01*
D02*
X1337Y2037D02*
X1418Y2118D01*
D02*
X718Y2718D02*
X805Y2633D01*
D02*
X618Y2819D02*
X718Y2718D01*
D02*
X618Y3119D02*
X618Y2819D01*
D02*
X700Y3200D02*
X618Y3119D01*
D02*
X1019Y2618D02*
X918Y2719D01*
D02*
X919Y2718D02*
X832Y2633D01*
D02*
X918Y2719D02*
X919Y2718D01*
D02*
X1300Y2337D02*
X1019Y2618D01*
D02*
X627Y2701D02*
X709Y2536D01*
D02*
X1118Y2118D02*
X718Y2118D01*
D02*
X718Y2118D02*
X536Y2026D01*
D02*
X1318Y1818D02*
X1118Y2118D01*
D02*
X1717Y2419D02*
X1717Y1918D01*
D02*
X1717Y1918D02*
X1618Y1818D01*
D02*
X1618Y1818D02*
X1318Y1818D01*
D02*
X1544Y2506D02*
X1717Y2419D01*
D02*
X518Y2219D02*
X519Y2400D01*
D02*
X335Y2127D02*
X518Y2219D01*
D02*
X319Y2619D02*
X619Y2619D01*
D02*
X619Y2619D02*
X714Y2237D01*
D02*
X232Y2532D02*
X319Y2619D01*
D02*
X619Y1919D02*
X700Y2000D01*
D02*
X619Y1818D02*
X619Y1919D01*
D02*
X918Y1719D02*
X619Y1818D01*
D02*
X1618Y1719D02*
X918Y1719D01*
D02*
X1718Y1619D02*
X1618Y1719D01*
D02*
X1718Y1518D02*
X1718Y1619D01*
D02*
X1618Y1419D02*
X1718Y1518D01*
D02*
X937Y1419D02*
X1618Y1419D01*
D02*
X218Y2118D02*
X218Y1937D01*
D02*
X418Y2219D02*
X218Y2118D01*
D02*
X418Y2500D02*
X418Y2219D01*
D02*
X1099Y2019D02*
X744Y2019D01*
D02*
X2097Y2397D02*
X2018Y2319D01*
D02*
X2018Y2319D02*
X2018Y1818D01*
D02*
X2018Y1818D02*
X1831Y1633D01*
D02*
X1599Y1619D02*
X718Y1619D01*
D02*
X718Y1619D02*
X519Y1719D01*
D02*
X519Y1719D02*
X237Y1719D01*
D02*
X318Y3018D02*
X231Y2931D01*
D02*
X318Y3419D02*
X318Y3018D01*
D02*
X419Y3518D02*
X318Y3419D01*
D02*
X418Y3700D02*
X419Y3518D01*
D02*
X618Y3518D02*
X419Y3819D01*
D02*
X627Y3502D02*
X618Y3518D01*
D02*
X419Y3819D02*
X319Y3818D01*
D02*
X319Y3818D02*
X219Y3718D01*
D02*
X219Y3718D02*
X259Y3638D01*
D02*
X1218Y3218D02*
X744Y3219D01*
D02*
X1307Y3395D02*
X1218Y3218D01*
D02*
X1118Y3918D02*
X1218Y3818D01*
D02*
X918Y3918D02*
X1118Y3918D01*
D02*
X832Y3832D02*
X918Y3918D01*
D02*
X1218Y3818D02*
X1218Y3518D01*
D02*
X1218Y3518D02*
X1300Y3437D01*
D02*
X737Y2519D02*
X818Y2518D01*
D02*
X818Y2518D02*
X905Y2605D01*
D02*
X1819Y2819D02*
X837Y2818D01*
D02*
X1913Y3290D02*
X1819Y2819D01*
D02*
X1490Y3519D02*
X1344Y3519D01*
D02*
X1318Y3245D02*
X1318Y3392D01*
D02*
X999Y3318D02*
X537Y3319D01*
D02*
X718Y3518D02*
X624Y3800D01*
D02*
X618Y3419D02*
X718Y3518D01*
D02*
X518Y3419D02*
X618Y3419D01*
D02*
X419Y3318D02*
X518Y3419D01*
D02*
X418Y3137D02*
X419Y3318D01*
D02*
X2419Y3917D02*
X2419Y4320D01*
D02*
X2419Y4320D02*
X2591Y4405D01*
D02*
X2591Y3832D02*
X2419Y3917D01*
D02*
X4037Y4725D02*
X4300Y4812D01*
D02*
X6718Y4719D02*
X6718Y4637D01*
D02*
X6632Y4805D02*
X6718Y4719D01*
D02*
X6519Y4618D02*
X6441Y4542D01*
D02*
X6599Y4618D02*
X6519Y4618D01*
D02*
X6218Y4919D02*
X6218Y4638D01*
D02*
X6018Y5219D02*
X6218Y4919D01*
D02*
X3118Y4518D02*
X3618Y5219D01*
D02*
X3618Y5219D02*
X6018Y5219D01*
D02*
X2648Y4519D02*
X3118Y4518D01*
G54D24*
D02*
X6119Y4618D02*
X6030Y4441D01*
D02*
X6118Y4705D02*
X6119Y4618D01*
G54D23*
D02*
X4518Y3619D02*
X4518Y3918D01*
D02*
X4518Y3918D02*
X4418Y4018D01*
D02*
X4119Y4018D02*
X4032Y3931D01*
D02*
X5499Y3519D02*
X4618Y3519D01*
D02*
X4618Y3519D02*
X4518Y3619D01*
D02*
X4418Y4018D02*
X4119Y4018D01*
D02*
X2799Y3519D02*
X2618Y3519D01*
D02*
X2618Y3519D02*
X2418Y3619D01*
D02*
X2418Y3619D02*
X2148Y3619D01*
D02*
X6318Y4019D02*
X6125Y3536D01*
D02*
X6318Y4387D02*
X6318Y4019D01*
D02*
X4019Y1518D02*
X3919Y1419D01*
D02*
X4118Y1518D02*
X4019Y1518D01*
D02*
X3919Y1419D02*
X3919Y1219D01*
D02*
X3919Y1219D02*
X3998Y1139D01*
D02*
X4318Y2018D02*
X4118Y1518D01*
D02*
X4619Y2018D02*
X4318Y2018D01*
D02*
X5407Y3003D02*
X4619Y2018D01*
G54D24*
D02*
X5919Y4319D02*
X5819Y3619D01*
G54D23*
D02*
X5819Y3619D02*
X5333Y3230D01*
G54D24*
D02*
X6018Y4318D02*
X5919Y4319D01*
D02*
X6107Y4497D02*
X6018Y4318D01*
G54D23*
D02*
X6618Y3418D02*
X6219Y3419D01*
D02*
X6219Y3419D02*
X5937Y3419D01*
D02*
X7001Y3610D02*
X6618Y3418D01*
D02*
X3419Y3819D02*
X3137Y3724D01*
D02*
X3903Y3529D02*
X3419Y3819D01*
D02*
X2648Y3618D02*
X2800Y3618D01*
D02*
X2502Y3427D02*
X2335Y3510D01*
D02*
X6435Y3627D02*
X6802Y3810D01*
G54D24*
D02*
X6918Y3918D02*
X6819Y4119D01*
D02*
X6818Y4119D02*
X6718Y4318D01*
D02*
X6718Y4318D02*
X6718Y4393D01*
D02*
X6918Y3832D02*
X6918Y3918D01*
G54D23*
D02*
X3335Y4109D02*
X4102Y3629D01*
G54D24*
D02*
X7018Y3918D02*
X7018Y3832D01*
D02*
X6825Y4306D02*
X7018Y3918D01*
G54D23*
D02*
X6224Y3536D02*
X6412Y4100D01*
G54D24*
D02*
X6424Y4130D02*
X6512Y4307D01*
G54D23*
D02*
X4318Y3418D02*
X4404Y3332D01*
D02*
X4319Y3899D02*
X4318Y3418D01*
D02*
X3832Y4605D02*
X4306Y4131D01*
G04 End of Copper0*
M02*