; NON-PLATED HOLES START AT T1
; THROUGH (PLATED) HOLES START AT T100
M48
INCH
T1C0.133858
T100C0.036111
T101C0.031555
T102C0.015748
T103C0.035000
T104C0.076929
T105C0.031496
T106C0.038000
T107C0.033622
T108C0.040278
T109C0.030000
T110C0.039370
%
T1
X084182Y002185
X002182Y002185
X084182Y051185
X002182Y051185
T100
X025182Y029185
X034182Y026185
X034182Y028185
X034182Y025185
X034182Y029185
X025182Y026185
X025182Y024185
X025182Y025185
X034182Y024185
X025182Y023185
X025182Y028185
X034182Y027185
X025182Y027185
X034182Y023185
X025182Y030185
X034182Y030185
T101
X011115Y018183
X011113Y006185
X011115Y030185
T102
X018177Y016192
X026174Y033191
X041177Y036188
X023179Y035189
X040186Y016180
X065182Y040185
X007182Y022185
X064181Y025186
X044183Y047186
X070182Y036185
X006182Y038185
X064182Y037185
X043178Y016180
X064181Y038178
X075193Y051194
X002182Y019185
X021185Y030178
X044175Y019187
X052176Y045188
X077184Y047187
X070182Y038185
X067182Y024185
X061182Y035185
X040186Y017177
X042180Y024190
X045178Y006179
X065182Y039185
X069177Y038187
X033172Y037183
X016175Y016192
X051188Y020184
X056193Y046175
X072182Y045185
X008182Y028178
X002175Y017185
X006182Y035185
X004177Y006189
X006176Y013192
X067175Y046175
X062179Y046185
X074185Y039176
X079197Y023199
X068182Y046185
X066175Y046181
X077182Y049185
X036195Y020180
X064181Y036188
X002182Y009185
X040186Y039178
X053182Y032185
X071185Y024181
X070180Y024181
X055174Y025186
X073182Y023185
X005185Y020177
X039189Y035189
X045182Y044185
X030183Y040193
X072195Y026192
X007176Y025186
X044182Y043185
X011181Y020192
X031188Y037183
X043178Y017177
X066182Y041185
X004182Y037185
X065184Y043189
X004185Y013184
X009176Y014188
X072182Y040185
X026176Y019189
X036181Y027177
X042182Y032185
X040182Y033185
X030183Y024179
X028189Y036178
X002183Y025186
X073182Y039185
X068185Y038187
X048179Y047186
X066182Y048185
X063182Y017185
X008182Y038185
X022177Y030190
X028182Y035185
X010180Y033183
X044175Y033187
X005182Y033185
X058182Y051194
X005179Y007189
X068185Y043182
X028190Y034184
X025189Y034184
X043178Y018190
X032182Y024185
X045178Y004188
X005182Y008185
X009182Y026185
X003182Y007185
X033184Y041192
X042184Y046180
X034171Y020174
X043189Y041180
X054188Y030179
X040188Y047188
X007182Y010185
X039193Y028173
X005185Y024192
X055182Y035185
X039193Y031185
X038184Y046185
X062176Y035181
X004177Y025186
X040186Y018190
X061178Y047186
X037176Y027177
X051188Y021180
X065182Y022185
X004182Y031185
X002179Y029178
X043189Y039178
X053187Y018182
X064181Y041184
X059182Y034185
X072195Y048186
X006189Y027179
X061178Y049188
X043181Y048177
X072194Y042191
X016172Y003174
X008182Y026192
X045182Y024185
X041183Y019187
X005175Y009184
X003182Y021185
X043176Y025186
X074182Y020185
T103
X037182Y013185
X038182Y022185
X043182Y006185
X019182Y035185
X040182Y005185
X015182Y015185
X036182Y026185
X043182Y008185
X037182Y008185
X019182Y021183
X019182Y042185
X019182Y009185
X040182Y007185
X040182Y013185
X046182Y006185
X037182Y007185
X040182Y012185
X046182Y007185
X019182Y039185
X037182Y012185
X015182Y021183
X037182Y022185
X015182Y025185
X037182Y006185
X015182Y011185
X015182Y037185
X043182Y005185
X037182Y026185
X040182Y008185
X015182Y023183
X019182Y015185
X015182Y009185
X019182Y023183
X015182Y039185
X019182Y025185
X037182Y011185
X019182Y013185
X040182Y014185
X019182Y033185
X040182Y011185
X043182Y007185
X015182Y027185
X015182Y033185
X019182Y011185
X015182Y042185
X038182Y026185
X036182Y022185
X046182Y008185
X015182Y035185
X040182Y006185
X046182Y005185
X015182Y013185
X037182Y014185
X037182Y005185
X019182Y037185
X019182Y027185
T104
X001174Y044378
X001174Y013251
X001174Y034378
X001174Y025252
X001174Y010378
X001174Y047252
X001174Y037252
X001174Y022378
T105
X009182Y006185
X009184Y030185
X009184Y018183
T106
X082182Y009185
X076182Y020185
X050182Y015185
X082182Y004685
X026182Y048185
X049182Y050185
X076182Y021185
X068182Y012185
X043182Y014185
X082182Y039185
X043182Y012185
X057182Y007685
X046182Y014185
X026182Y042185
X079182Y037185
X046182Y012185
X026182Y044185
X076182Y035185
X054182Y015185
X076182Y046185
X039182Y050185
X044182Y050185
X021182Y024185
X039182Y049185
X076182Y040185
X082182Y007685
X082182Y026185
X079182Y031185
X031182Y008185
X069182Y049185
X076182Y039185
X076182Y037185
X033182Y011185
X026182Y040185
X076182Y031185
X054182Y010185
X021182Y011185
X057182Y006185
X043182Y013185
X044182Y049185
X064182Y050185
X074182Y050185
X082182Y015185
X027182Y014185
X034182Y008185
X068182Y013685
X071182Y010685
X033182Y005185
X025182Y005185
X054182Y049185
X082182Y037185
X021182Y036185
X025182Y011185
X071182Y004685
X082182Y012185
X028182Y011185
X082182Y038185
X026182Y049185
X054182Y050185
X032182Y005185
X068182Y010685
X076182Y032185
X050182Y011185
X079182Y035185
X028182Y014185
X082182Y035185
X028182Y005185
X074182Y049185
X021182Y012185
X068182Y006185
X054182Y014185
X082182Y013685
X032182Y014185
X057182Y009185
X082182Y010685
X021182Y035185
X021182Y013185
X082182Y021185
X034182Y005185
X050182Y010185
X079182Y032185
X079182Y036185
X071182Y007685
X021182Y023185
X026182Y036185
X057182Y004685
X026182Y046185
X082182Y040185
X026182Y045185
X031182Y011185
X026182Y005185
X027182Y005185
X071182Y009185
X054182Y011185
X057182Y012185
X071182Y006185
X050182Y014185
X082182Y006185
X068182Y004685
X050182Y007185
X071182Y013685
X034182Y011185
X057182Y010685
X026182Y038185
X021182Y037185
X082182Y046185
X026182Y043185
X082182Y036185
X026182Y014185
X027182Y011185
X082182Y032185
X069182Y050185
X079182Y039185
X033182Y008185
X026182Y041185
X031182Y005185
X050182Y006185
X028182Y008185
X021182Y025185
X071182Y012185
X026182Y037185
X079182Y045185
X076182Y045185
X059182Y050185
X026182Y008185
X082182Y025185
X076182Y036185
X079182Y021185
X032182Y008185
X076182Y038185
X026182Y039185
X064182Y049185
X082182Y020185
X057182Y015185
X046182Y013185
X082182Y045185
X079182Y040185
X057182Y013685
X033182Y014185
X049182Y049185
X059182Y049185
X034182Y014185
X068182Y007685
X068182Y009185
X079182Y046185
X031182Y014185
X025182Y008185
X071182Y015185
X082182Y031185
X025182Y014185
X026182Y047185
X027182Y008185
X026182Y011185
X032182Y011185
X079182Y020185
X079182Y038185
X068182Y015185
T107
X002710Y046129
X003182Y012444
X003182Y046444
X002710Y012129
X003182Y036444
X003182Y035185
X003182Y035815
X003182Y023185
X003182Y045185
X003182Y024444
X003182Y023815
X003182Y045815
X002710Y023500
X002710Y011500
X002710Y036129
X003182Y011185
X002710Y024129
X003182Y011815
X002710Y045500
X002710Y035500
T108
X060182Y045197
X056182Y044185
X070182Y044185
X071182Y045197
X065182Y021197
X070182Y045197
X065182Y045197
X060171Y023193
X055182Y044185
X056570Y042193
X054182Y045197
X069171Y042193
X066182Y021197
X060182Y021197
X062570Y042193
X061571Y042193
X057182Y045197
X054182Y020216
X060571Y042193
X068170Y023193
X059182Y044185
X053182Y044185
X057182Y020216
X057170Y023193
X062182Y045197
X062182Y044185
X068170Y042193
X066171Y042193
X064182Y045197
X055182Y020216
X069182Y044185
X053182Y021197
X068182Y020216
X063182Y044185
X055182Y021197
X053182Y045197
X066182Y044185
X061182Y044185
X067182Y021197
X058182Y044185
X059182Y045197
X060182Y020216
X056182Y045197
X069182Y020216
X054182Y044185
X063182Y020216
X064171Y042193
X054571Y042193
X055571Y042193
X071182Y044185
X068182Y021197
X063182Y045197
X070171Y023193
X060182Y044185
X066182Y045197
X059571Y042193
X070182Y021197
X056182Y021197
X058570Y042193
X058182Y020216
X071171Y042193
X065182Y044185
X067170Y042193
X058182Y021197
X069182Y045197
X062182Y021197
X067182Y045197
X069182Y021197
X067170Y023193
X068182Y045197
X069171Y023193
X063170Y023193
X071182Y020216
X059182Y021197
X057182Y021197
X059171Y023193
X071182Y021197
X062170Y023193
X066171Y023193
X061182Y020216
X071171Y023193
X058182Y045197
X065171Y042193
X057571Y042193
X064182Y020216
X064182Y044185
X061182Y045197
X061182Y021197
X064171Y023193
X053570Y042193
X053182Y020216
X067182Y044185
X056182Y020216
X061171Y023193
X070171Y042193
X070182Y020216
X062182Y020216
X055182Y045197
X059182Y020216
X066182Y020216
X067182Y020216
X065182Y020216
X068182Y044185
X064182Y021197
X063182Y021197
X057182Y044185
X058170Y023193
X054182Y021197
T109
X013182Y031185
X007182Y019183
X007182Y020185
X013182Y020185
X013182Y011185
X007182Y031185
X007182Y007185
X013182Y008186
X013182Y010183
X013182Y034183
X013182Y019183
X013182Y022183
X013182Y023185
X007182Y008186
X013182Y007185
X007182Y032186
X013182Y032186
X013182Y035185
T110
X064182Y010185
X078182Y003185
X078182Y010185
X075182Y004185
X061182Y011185
X078182Y014185
X078182Y011185
X064182Y004185
X061182Y015185
X078182Y012185
X061182Y013185
X075182Y011185
X075182Y013185
X064182Y008185
X064182Y006185
X078182Y005185
X075182Y009185
X061182Y007185
X064182Y003185
X078182Y004185
X078182Y013185
X061182Y004185
X061182Y014185
X061182Y008185
X078182Y009185
X064182Y013185
X064182Y005185
X064182Y002185
X064182Y011185
X075182Y006185
X078182Y002185
X061182Y006185
X078182Y008185
X078182Y006185
X061182Y005185
X078182Y007185
X075182Y012185
X075182Y008185
X075182Y010185
X064182Y009185
X064182Y014185
X075182Y003185
X075182Y007185
X075182Y015185
X061182Y012185
X064182Y012185
X064182Y007185
X061182Y010185
X075182Y002185
X061182Y009185
X064182Y015185
X078182Y015185
X075182Y005185
X075182Y014185
X061182Y003185
X061182Y002185
T00
M30
