G04 MADE WITH FRITZING*
G04 WWW.FRITZING.ORG*
G04 DOUBLE SIDED*
G04 HOLES PLATED*
G04 CONTOUR ON CENTER OF CONTOUR VECTOR*
%ASAXBY*%
%FSLAX23Y23*%
%MOIN*%
%OFA0B0*%
%SFA1.0B1.0*%
%ADD10C,0.049370*%
%ADD11C,0.092677*%
%ADD12R,0.080000X0.026000*%
%ADD13R,0.062992X0.074803*%
%LNPASTEMASK1*%
G90*
G70*
G54D10*
X271Y1150D03*
G54D11*
X117Y1038D03*
X117Y1325D03*
G54D10*
X271Y2350D03*
G54D11*
X117Y2238D03*
X117Y2525D03*
G54D10*
X271Y3550D03*
G54D11*
X117Y3438D03*
X117Y3725D03*
G54D10*
X271Y4550D03*
G54D11*
X117Y4438D03*
X117Y4725D03*
G54D12*
X876Y1319D03*
X876Y1269D03*
X876Y1219D03*
X876Y1169D03*
X876Y1119D03*
X876Y1069D03*
X876Y1019D03*
X876Y969D03*
X1118Y969D03*
X1118Y1019D03*
X1118Y1069D03*
X1118Y1119D03*
X1118Y1169D03*
X1118Y1219D03*
X1118Y1269D03*
X1118Y1319D03*
X876Y2518D03*
X876Y2468D03*
X876Y2418D03*
X876Y2368D03*
X876Y2318D03*
X876Y2268D03*
X876Y2218D03*
X876Y2168D03*
X1118Y2168D03*
X1118Y2218D03*
X1118Y2268D03*
X1118Y2318D03*
X1118Y2368D03*
X1118Y2418D03*
X1118Y2468D03*
X1118Y2518D03*
X876Y3769D03*
X876Y3719D03*
X876Y3669D03*
X876Y3619D03*
X876Y3569D03*
X876Y3519D03*
X876Y3469D03*
X876Y3419D03*
X1118Y3419D03*
X1118Y3469D03*
X1118Y3519D03*
X1118Y3569D03*
X1118Y3619D03*
X1118Y3669D03*
X1118Y3719D03*
X1118Y3769D03*
G54D13*
X218Y819D03*
X96Y819D03*
X96Y619D03*
X218Y619D03*
X96Y419D03*
X218Y419D03*
X96Y1819D03*
X218Y1819D03*
X3818Y3319D03*
X3696Y3319D03*
X3818Y3119D03*
X3696Y3119D03*
X96Y4219D03*
X218Y4219D03*
X218Y2019D03*
X96Y2019D03*
X96Y1619D03*
X218Y1619D03*
X96Y2819D03*
X218Y2819D03*
X96Y3019D03*
X218Y3019D03*
X218Y3219D03*
X96Y3219D03*
G36*
X3787Y2881D02*
X3787Y2956D01*
X3850Y2956D01*
X3850Y2881D01*
X3787Y2881D01*
G37*
D02*
G36*
X3665Y2881D02*
X3665Y2956D01*
X3728Y2956D01*
X3728Y2881D01*
X3665Y2881D01*
G37*
D02*
G04 End of PasteMask1*
M02*